<svg width="24" height="23" viewBox="0 0 24 23" fill="none" xmlns="http://www.w3.org/2000/svg">
<path d="M1.8584 7.36914C1.56478 7.36914 1.33561 7.27962 1.1709 7.10059C1.00618 6.92155 0.923828 6.72103 0.923828 6.49902C0.923828 6.16243 1.11719 5.88672 1.50391 5.67188L10.6777 0.375977C11.1003 0.125326 11.5371 0 11.9883 0C12.4395 0 12.8799 0.125326 13.3096 0.375977L22.4834 5.67188C22.8701 5.89388 23.0635 6.1696 23.0635 6.49902C23.0635 6.72103 22.9811 6.92155 22.8164 7.10059C22.6517 7.27962 22.4225 7.36914 22.1289 7.36914H1.8584ZM2.44922 9.59277C2.2487 9.59277 2.09115 9.53906 1.97656 9.43164C1.86914 9.32422 1.81543 9.17025 1.81543 8.96973V8.81934C1.81543 8.61882 1.86914 8.46484 1.97656 8.35742C2.09115 8.24284 2.2487 8.18555 2.44922 8.18555H5.31738C5.5179 8.18555 5.67188 8.24284 5.7793 8.35742C5.89388 8.46484 5.95117 8.61882 5.95117 8.81934V8.96973C5.95117 9.17025 5.89388 9.32422 5.7793 9.43164C5.67188 9.53906 5.5179 9.59277 5.31738 9.59277H2.44922ZM3.07227 19.2607V9.29199H4.69434V19.2607H3.07227ZM2.44922 20.3672C2.2487 20.3672 2.09115 20.3099 1.97656 20.1953C1.86914 20.0879 1.81543 19.9339 1.81543 19.7334V19.583C1.81543 19.3825 1.86914 19.2285 1.97656 19.1211C2.09115 19.0137 2.2487 18.96 2.44922 18.96H5.31738C5.5179 18.96 5.67188 19.0137 5.7793 19.1211C5.89388 19.2285 5.95117 19.3825 5.95117 19.583V19.7334C5.95117 19.9339 5.89388 20.0879 5.7793 20.1953C5.67188 20.3099 5.5179 20.3672 5.31738 20.3672H2.44922ZM7.86328 9.59277C7.66276 9.59277 7.50521 9.53906 7.39062 9.43164C7.2832 9.32422 7.22949 9.17025 7.22949 8.96973V8.81934C7.22949 8.61882 7.2832 8.46484 7.39062 8.35742C7.50521 8.24284 7.66276 8.18555 7.86328 8.18555H10.7207C10.9212 8.18555 11.0752 8.24284 11.1826 8.35742C11.2972 8.46484 11.3545 8.61882 11.3545 8.81934V8.96973C11.3545 9.17025 11.2972 9.32422 11.1826 9.43164C11.0752 9.53906 10.9212 9.59277 10.7207 9.59277H7.86328ZM8.47559 19.2607V9.29199H10.0977V19.2607H8.47559ZM7.86328 20.3672C7.66276 20.3672 7.50521 20.3099 7.39062 20.1953C7.2832 20.0879 7.22949 19.9339 7.22949 19.7334V19.583C7.22949 19.3825 7.2832 19.2285 7.39062 19.1211C7.50521 19.0137 7.66276 18.96 7.86328 18.96H10.7207C10.9212 18.96 11.0752 19.0137 11.1826 19.1211C11.2972 19.2285 11.3545 19.3825 11.3545 19.583V19.7334C11.3545 19.9339 11.2972 20.0879 11.1826 20.1953C11.0752 20.3099 10.9212 20.3672 10.7207 20.3672H7.86328ZM13.2666 9.59277C13.0661 9.59277 12.9085 9.53906 12.7939 9.43164C12.6865 9.32422 12.6328 9.17025 12.6328 8.96973V8.81934C12.6328 8.61882 12.6865 8.46484 12.7939 8.35742C12.9085 8.24284 13.0661 8.18555 13.2666 8.18555H16.124C16.3317 8.18555 16.4893 8.24284 16.5967 8.35742C16.7113 8.46484 16.7686 8.61882 16.7686 8.81934V8.96973C16.7686 9.17025 16.7113 9.32422 16.5967 9.43164C16.4893 9.53906 16.3317 9.59277 16.124 9.59277H13.2666ZM13.8896 19.2607V9.29199H15.5117V19.2607H13.8896ZM13.2666 20.3672C12.8441 20.3672 12.6328 20.1559 12.6328 19.7334V19.583C12.6328 19.3825 12.6865 19.2285 12.7939 19.1211C12.9085 19.0137 13.0661 18.96 13.2666 18.96H16.124C16.3317 18.96 16.4893 19.0137 16.5967 19.1211C16.7113 19.2285 16.7686 19.3825 16.7686 19.583V19.7334C16.7686 19.9339 16.7113 20.0879 16.5967 20.1953C16.4893 20.3099 16.3317 20.3672 16.124 20.3672H13.2666ZM18.6699 9.59277C18.4694 9.59277 18.3118 9.53906 18.1973 9.43164C18.0898 9.32422 18.0361 9.17025 18.0361 8.96973V8.81934C18.0361 8.61882 18.0898 8.46484 18.1973 8.35742C18.3118 8.24284 18.4694 8.18555 18.6699 8.18555H21.5381C21.7386 8.18555 21.8926 8.24284 22 8.35742C22.1146 8.46484 22.1719 8.61882 22.1719 8.81934V8.96973C22.1719 9.17025 22.1146 9.32422 22 9.43164C21.8926 9.53906 21.7386 9.59277 21.5381 9.59277H18.6699ZM19.3037 19.2607V9.29199H20.9258V19.2607H19.3037ZM18.6699 20.3672C18.2474 20.3672 18.0361 20.1559 18.0361 19.7334V19.583C18.0361 19.3825 18.0898 19.2285 18.1973 19.1211C18.3118 19.0137 18.4694 18.96 18.6699 18.96H21.5381C21.7386 18.96 21.8926 19.0137 22 19.1211C22.1146 19.2285 22.1719 19.3825 22.1719 19.583V19.7334C22.1719 19.9339 22.1146 20.0879 22 20.1953C21.8926 20.3099 21.7386 20.3672 21.5381 20.3672H18.6699ZM0.859375 22.9238C0.623047 22.9238 0.418945 22.8379 0.24707 22.666C0.0823568 22.4941 0 22.29 0 22.0537C0 21.8174 0.0823568 21.6133 0.24707 21.4414C0.418945 21.2767 0.623047 21.1943 0.859375 21.1943H23.1172C23.3535 21.1943 23.5576 21.2767 23.7295 21.4414C23.9014 21.6133 23.9873 21.8174 23.9873 22.0537C23.9873 22.29 23.9014 22.4941 23.7295 22.666C23.5576 22.8379 23.3535 22.9238 23.1172 22.9238H0.859375Z" fill="#F24B4B"/>
</svg>
