<svg width="22" height="22" viewBox="0 0 22 22" fill="none" xmlns="http://www.w3.org/2000/svg">
<path d="M10.957 21.9141C9.44596 21.9141 8.02799 21.6276 6.70312 21.0547C5.37826 20.4889 4.21452 19.7048 3.21191 18.7021C2.20931 17.6924 1.42155 16.5286 0.848633 15.2109C0.282878 13.8861 0 12.4681 0 10.957C0 9.44596 0.282878 8.02799 0.848633 6.70312C1.42155 5.37826 2.20931 4.21452 3.21191 3.21191C4.21452 2.20931 5.37826 1.42513 6.70312 0.859375C8.02799 0.286458 9.44596 0 10.957 0C12.4681 0 13.8861 0.286458 15.2109 0.859375C16.5358 1.42513 17.6995 2.20931 18.7021 3.21191C19.7048 4.21452 20.4889 5.37826 21.0547 6.70312C21.6276 8.02799 21.9141 9.44596 21.9141 10.957C21.9141 12.4681 21.6276 13.8861 21.0547 15.2109C20.4889 16.5286 19.7048 17.6924 18.7021 18.7021C17.6995 19.7048 16.5358 20.4889 15.2109 21.0547C13.8861 21.6276 12.4681 21.9141 10.957 21.9141ZM10.957 17.123C11.0645 17.123 11.1504 17.0872 11.2148 17.0156C11.2865 16.9368 11.3223 16.8509 11.3223 16.7578V15.791C11.9023 15.7552 12.4323 15.6335 12.9121 15.4258C13.3991 15.2181 13.7858 14.9173 14.0723 14.5234C14.3659 14.1224 14.5127 13.6211 14.5127 13.0195C14.5127 12.4681 14.3802 12.0169 14.1152 11.666C13.8503 11.3151 13.4993 11.0394 13.0625 10.8389C12.6328 10.6383 12.1673 10.4772 11.666 10.3555L11.3223 10.2803V7.06836C11.7734 7.11849 12.153 7.25814 12.4609 7.4873C12.7689 7.71647 12.9909 8.03874 13.127 8.4541C13.1842 8.62598 13.263 8.75488 13.3633 8.84082C13.4707 8.9196 13.5996 8.95898 13.75 8.95898C13.8932 8.95898 14.0293 8.91243 14.1582 8.81934C14.2871 8.72624 14.3516 8.58301 14.3516 8.38965C14.3516 7.9528 14.2012 7.5625 13.9004 7.21875C13.5996 6.86784 13.2165 6.58496 12.751 6.37012C12.2926 6.14811 11.8164 6.01562 11.3223 5.97266V5.02734C11.3223 4.93424 11.2865 4.85189 11.2148 4.78027C11.1504 4.7015 11.0645 4.66211 10.957 4.66211C10.8568 4.66211 10.7708 4.7015 10.6992 4.78027C10.6276 4.85189 10.5918 4.93424 10.5918 5.02734V5.97266C10.0475 6.01562 9.54622 6.15169 9.08789 6.38086C8.62956 6.60286 8.26074 6.90723 7.98145 7.29395C7.70931 7.68066 7.57324 8.139 7.57324 8.66895C7.57324 9.22038 7.70573 9.66797 7.9707 10.0117C8.24284 10.3555 8.59017 10.624 9.0127 10.8174C9.43522 11.0107 9.87207 11.1611 10.3232 11.2686L10.5918 11.3438V14.6953C10.112 14.6523 9.70378 14.5199 9.36719 14.2979C9.03776 14.0758 8.78711 13.7321 8.61523 13.2666C8.54362 13.1019 8.45768 12.9801 8.35742 12.9014C8.26432 12.8226 8.14616 12.7832 8.00293 12.7832C7.83822 12.7832 7.69499 12.8369 7.57324 12.9443C7.45866 13.0446 7.40137 13.1842 7.40137 13.3633C7.40137 13.4564 7.42285 13.5745 7.46582 13.7178C7.65918 14.3838 8.06022 14.8851 8.66895 15.2217C9.27767 15.5511 9.91862 15.7409 10.5918 15.791V16.7578C10.5918 16.8509 10.6276 16.9368 10.6992 17.0156C10.7708 17.0872 10.8568 17.123 10.957 17.123ZM8.81934 8.57227C8.81934 8.26432 8.90169 8.00651 9.06641 7.79883C9.23828 7.59115 9.46029 7.43001 9.73242 7.31543C10.0046 7.19368 10.291 7.11133 10.5918 7.06836V10.1084L10.5166 10.0869C10.2087 10.0153 9.92578 9.91862 9.66797 9.79688C9.41016 9.66797 9.20247 9.50684 9.04492 9.31348C8.89453 9.11296 8.81934 8.86589 8.81934 8.57227ZM11.3223 14.7061V11.5049L11.4297 11.5371C11.9167 11.6589 12.3464 11.8307 12.7188 12.0527C13.0911 12.2676 13.2773 12.6221 13.2773 13.1162C13.2773 13.6676 13.0768 14.0615 12.6758 14.2979C12.2819 14.527 11.8307 14.6631 11.3223 14.7061Z" fill="#F24B4B"/>
</svg>
