<svg width="22" height="22" viewBox="0 0 22 22" fill="none" xmlns="http://www.w3.org/2000/svg">
<path d="M11.4082 19.1104C10.8424 19.1104 10.4128 18.9635 10.1191 18.6699C9.83268 18.3763 9.63216 18.0039 9.51758 17.5527C9.41016 17.0944 9.34928 16.6182 9.33496 16.124C9.3278 15.6299 9.32422 15.1823 9.32422 14.7812C9.32422 14.2656 9.1416 13.8431 8.77637 13.5137C8.41829 13.1771 7.95996 13.0088 7.40137 13.0088C6.49186 13.0088 5.78646 12.7617 5.28516 12.2676C4.78385 11.7734 4.5332 11.0859 4.5332 10.2051C4.5332 9.52474 4.73372 8.90169 5.13477 8.33594C5.53581 7.77018 6.06934 7.31543 6.73535 6.97168C7.40853 6.62793 8.14616 6.45605 8.94824 6.45605C9.30632 6.45605 9.66439 6.50618 10.0225 6.60645C10.3877 6.69954 10.7171 6.79264 11.0107 6.88574C11.3115 6.97884 11.5443 7.02539 11.709 7.02539C11.8522 7.02539 11.9632 6.9502 12.042 6.7998C12.1208 6.64225 12.1602 6.45247 12.1602 6.23047C12.1602 6.07292 12.085 5.89746 11.9346 5.7041C11.7913 5.50358 11.6087 5.33529 11.3867 5.19922C11.1647 5.05599 10.9391 4.98438 10.71 4.98438C10.6455 4.98438 10.5954 5.00228 10.5596 5.03809C10.5309 5.06673 10.5094 5.11686 10.4951 5.18848C10.488 5.34603 10.4378 5.47852 10.3447 5.58594C10.2588 5.6862 10.1263 5.73633 9.94727 5.73633C9.68229 5.73633 9.45312 5.67904 9.25977 5.56445C9.06641 5.44271 8.88737 5.32096 8.72266 5.19922C8.5651 5.07747 8.40755 5.0166 8.25 5.0166C8.09245 5.0166 7.96354 5.08464 7.86328 5.2207C7.76302 5.35677 7.6556 5.51432 7.54102 5.69336C7.43359 5.8724 7.29036 6.02995 7.11133 6.16602C6.93945 6.30208 6.69596 6.37012 6.38086 6.37012C6.08724 6.37012 5.85449 6.28776 5.68262 6.12305C5.51074 5.95833 5.4248 5.74349 5.4248 5.47852C5.4248 5.26367 5.4821 5.07389 5.59668 4.90918C5.71126 4.74447 5.84375 4.57617 5.99414 4.4043C6.15169 4.22526 6.28776 4.01758 6.40234 3.78125C6.51693 3.54492 6.57422 3.2513 6.57422 2.90039C6.57422 2.54232 6.71745 2.18783 7.00391 1.83691C7.29036 1.47884 7.75228 1.18522 8.38965 0.956055C9.02702 0.719727 9.87923 0.597982 10.9463 0.59082C12.3786 0.59082 13.7214 0.866536 14.9746 1.41797C16.2279 1.96224 17.3307 2.71419 18.2832 3.67383C19.2357 4.63346 19.9805 5.73991 20.5176 6.99316C21.0547 8.23926 21.3232 9.56055 21.3232 10.957C21.3232 11.3652 21.2552 11.7269 21.1191 12.042C20.9902 12.3571 20.8112 12.6507 20.582 12.9229C20.1595 12.7367 19.8229 12.4395 19.5723 12.0312C19.3288 11.623 19.1354 11.1934 18.9922 10.7422C18.849 10.291 18.7236 9.90788 18.6162 9.59277C18.516 9.27051 18.3978 9.10938 18.2617 9.10938C18.1829 9.10938 18.1185 9.1416 18.0684 9.20605C18.0182 9.27051 17.9574 9.33496 17.8857 9.39941C17.8141 9.45671 17.7067 9.48535 17.5635 9.48535C17.3988 9.48535 17.209 9.41016 16.9941 9.25977C16.7865 9.10938 16.5716 8.9375 16.3496 8.74414C16.1348 8.54362 15.9307 8.36816 15.7373 8.21777C15.5511 8.06738 15.3971 7.99219 15.2754 7.99219C15.1393 7.99219 15.014 8.05664 14.8994 8.18555C14.792 8.31445 14.7383 8.46484 14.7383 8.63672C14.7383 8.77279 14.8493 8.9196 15.0713 9.07715C15.2933 9.2347 15.5475 9.41016 15.834 9.60352C16.1276 9.78971 16.3854 9.99023 16.6074 10.2051C16.8294 10.4128 16.9404 10.6348 16.9404 10.8711C16.9404 11.179 16.8438 11.4727 16.6504 11.752C16.4642 12.0312 16.2744 12.2783 16.0811 12.4932C15.8949 12.708 15.8018 12.8799 15.8018 13.0088C15.8018 13.2809 15.8197 13.6247 15.8555 14.04C15.8984 14.4482 15.7839 14.8743 15.5117 15.3184C15.4043 15.4974 15.2217 15.791 14.9639 16.1992C14.7132 16.6074 14.4053 17.0371 14.04 17.4883C13.6748 17.9323 13.2666 18.3154 12.8154 18.6377C12.3714 18.9528 11.9023 19.1104 11.4082 19.1104ZM14.1152 4.47949C14.2298 4.47949 14.3444 4.51888 14.459 4.59766C14.5807 4.66927 14.7383 4.70508 14.9316 4.70508C15.0534 4.70508 15.1536 4.65853 15.2324 4.56543C15.3112 4.46517 15.3506 4.34342 15.3506 4.2002C15.3506 3.94954 15.2253 3.73828 14.9746 3.56641C14.724 3.39453 14.4089 3.30859 14.0293 3.30859C13.5853 3.30859 13.2415 3.38021 12.998 3.52344C12.7546 3.65951 12.6328 3.85645 12.6328 4.11426C12.6328 4.28613 12.6865 4.42578 12.7939 4.5332C12.9085 4.63346 13.0482 4.68359 13.2129 4.68359C13.3848 4.68359 13.528 4.65137 13.6426 4.58691C13.7643 4.5153 13.9219 4.47949 14.1152 4.47949ZM10.957 21.9141C9.44596 21.9141 8.02799 21.6276 6.70312 21.0547C5.37826 20.4889 4.21452 19.7048 3.21191 18.7021C2.20931 17.6995 1.42155 16.5358 0.848633 15.2109C0.282878 13.8861 0 12.4681 0 10.957C0 9.44596 0.282878 8.02799 0.848633 6.70312C1.42155 5.37826 2.20931 4.21452 3.21191 3.21191C4.21452 2.20215 5.37826 1.41439 6.70312 0.848633C8.02799 0.282878 9.44596 0 10.957 0C12.4681 0 13.8861 0.282878 15.2109 0.848633C16.5358 1.41439 17.6995 2.20215 18.7021 3.21191C19.7048 4.21452 20.4889 5.37826 21.0547 6.70312C21.6276 8.02799 21.9141 9.44596 21.9141 10.957C21.9141 12.4681 21.6276 13.8861 21.0547 15.2109C20.4889 16.5358 19.7048 17.6995 18.7021 18.7021C17.6995 19.7048 16.5358 20.4889 15.2109 21.0547C13.8861 21.6276 12.4681 21.9141 10.957 21.9141ZM10.957 20.4531C12.2676 20.4531 13.4958 20.2061 14.6416 19.7119C15.7874 19.2178 16.7972 18.5374 17.6709 17.6709C18.5446 16.7972 19.2249 15.7874 19.7119 14.6416C20.2061 13.4958 20.4531 12.2676 20.4531 10.957C20.4531 9.64648 20.2061 8.41829 19.7119 7.27246C19.2249 6.11947 18.5446 5.1097 17.6709 4.24316C16.7972 3.36947 15.7874 2.68913 14.6416 2.20215C13.4958 1.70801 12.2676 1.46094 10.957 1.46094C9.64648 1.46094 8.41829 1.70801 7.27246 2.20215C6.12663 2.68913 5.11686 3.36947 4.24316 4.24316C3.36947 5.1097 2.68555 6.11947 2.19141 7.27246C1.70443 8.41829 1.46094 9.64648 1.46094 10.957C1.46094 12.2676 1.70443 13.4958 2.19141 14.6416C2.68555 15.7874 3.36947 16.7972 4.24316 17.6709C5.11686 18.5374 6.12663 19.2178 7.27246 19.7119C8.41829 20.2061 9.64648 20.4531 10.957 20.4531Z" fill="#F24B4B"/>
</svg>
