<svg width="657" height="636" viewBox="0 0 657 636" fill="none" xmlns="http://www.w3.org/2000/svg">
<path d="M62.2692 153.86C61.5482 152.48 62.0819 150.774 63.4731 150.074C91.6319 135.9 122.918 129.027 154.455 130.111C186.931 131.227 218.564 140.741 246.267 157.726C273.97 174.712 296.797 198.588 312.522 227.025C328.247 255.463 336.333 287.491 335.99 319.984C335.647 352.478 326.887 384.328 310.565 412.428C294.243 440.527 270.917 463.916 242.862 480.312C214.806 496.709 182.98 505.554 150.487 505.984C118.934 506.401 87.8002 498.87 59.9469 484.104C58.5709 483.375 58.0733 481.658 58.8233 480.293C59.5733 478.928 61.2869 478.432 62.6633 479.161C89.6619 493.457 119.835 500.749 150.412 500.344C181.93 499.927 212.802 491.348 240.016 475.443C267.23 459.538 289.856 436.851 305.688 409.595C321.52 382.338 330.017 351.444 330.35 319.925C330.683 288.406 322.84 257.339 307.587 229.755C292.334 202.17 270.191 179.01 243.319 162.535C216.447 146.059 185.763 136.83 154.261 135.748C123.699 134.698 93.3788 141.351 66.0844 155.074C64.693 155.773 62.9902 155.241 62.2692 153.86Z" fill="#F1F2F4"/>
<circle cx="57" cy="479" r="9" fill="#F1F2F4"/>
<circle cx="57" cy="157" r="9" fill="#F1F2F4"/>
<g clip-path="url(#clip0_349_6383)">
<path d="M142.082 218.125C224.691 214.175 277.385 305.652 230.251 374.598C188.827 435.192 98.2645 431.679 61.4662 368.232C24.2787 304.11 68.3221 221.653 142.082 218.125ZM144.453 249.136H128.95L128.701 249.757L142.121 273.747V287.879C143.176 287.964 144.072 287.313 145.111 287.036C148.249 286.204 150.962 286.107 154.116 286.997C154.696 287.161 156.903 288.257 157.234 288.046L157.487 273.606L170.872 249.581L170.607 249.136H155.105L149.689 258.873L144.457 249.136H144.453ZM161.544 275.152V292.09C161.544 292.273 163.218 294.56 163.502 295.181C168.342 305.745 161.493 318.226 149.518 318.18C137.804 318.133 130.99 305.761 135.682 295.372C136.013 294.642 137.823 292.105 137.823 291.902V275.433C137.181 274.855 135.639 275.882 134.903 276.248C120.206 283.566 114.008 301.964 122.289 316.455C131.847 333.182 155.136 336.874 169.852 324.748C184.693 312.521 184.167 291.411 169.292 279.464C167.072 277.681 164.25 275.913 161.544 275.156V275.152ZM139.022 353.655C139.135 353.519 139.408 353.472 139.474 353.265C139.555 352.984 139.555 352.711 139.408 352.45C139.33 352.309 137.364 350.709 137.06 350.498C128.172 344.41 111.451 347.766 112.611 360.587C113.117 366.179 117.75 368.529 122.406 370.238C125.162 371.249 131.45 371.913 129.266 376.163C127.082 380.413 119.704 377.583 117.458 374.629L116.839 374.555L111.384 380.155V380.705C117.551 387.676 131.138 389.553 137.893 382.563C142.035 378.274 142.288 370.578 137.535 366.679C134.44 364.138 130.92 363.607 127.362 362.273C125.197 361.461 122.087 359.713 124.761 357.242C127.253 354.939 131.427 356.735 133.459 358.819L133.942 358.78C134.292 358.651 138.485 354.299 139.014 353.655H139.022ZM156.876 348.711C156.537 348.625 156.214 348.543 155.856 348.516C153.906 348.359 149.284 348.27 147.431 348.516C147.026 348.57 146.84 348.66 146.598 348.992V385.49L146.879 385.771H156.872V371.546H170.132V385.49L170.413 385.771H180.126C180.189 385.771 180.41 385.525 180.593 385.584V348.992C180.274 348.652 179.815 348.574 179.379 348.523C177.623 348.32 173.107 348.32 171.339 348.512C170.857 348.562 170.471 348.574 170.132 348.988V362.37H156.872V348.707L156.876 348.711Z" fill="#252422"/>
<path d="M161.545 275.152C164.25 275.909 167.069 277.681 169.292 279.46C184.168 291.403 184.693 312.517 169.853 324.744C155.132 336.87 131.847 333.178 122.29 316.451C114.005 301.96 120.207 283.562 134.904 276.245C135.639 275.878 137.181 274.851 137.823 275.429V291.898C137.823 292.101 136.013 294.638 135.682 295.368C130.991 305.757 137.804 318.129 149.519 318.176C161.494 318.222 168.342 305.745 163.503 295.177C163.219 294.556 161.545 292.269 161.545 292.086V275.148V275.152Z" fill="#FCFCFC"/>
<path d="M156.877 348.711V362.374H170.137V348.992C170.475 348.578 170.861 348.566 171.344 348.516C173.111 348.324 177.627 348.32 179.383 348.527C179.823 348.578 180.282 348.656 180.598 348.996V385.588C180.415 385.529 180.193 385.775 180.131 385.775H170.417L170.137 385.494V371.55H156.877V385.775H146.883L146.603 385.494V348.996C146.844 348.66 147.031 348.57 147.436 348.519C149.285 348.274 153.91 348.367 155.86 348.519C156.215 348.547 156.538 348.629 156.881 348.715L156.877 348.711Z" fill="#FAFAFA"/>
<path d="M144.453 249.136L149.686 258.873L155.101 249.136H170.604L170.869 249.581L157.484 273.606L157.231 288.046C156.9 288.257 154.692 287.161 154.112 286.997C150.959 286.107 148.245 286.204 145.107 287.036C144.068 287.313 143.173 287.961 142.118 287.879V273.747L128.698 249.757L128.947 249.136H144.45H144.453Z" fill="#F24B4B"/>
<path d="M139.022 353.655C138.493 354.299 134.304 358.655 133.95 358.78L133.467 358.819C131.435 356.735 127.261 354.939 124.77 357.242C122.095 359.713 125.206 361.457 127.37 362.273C130.929 363.607 134.444 364.142 137.543 366.679C142.297 370.578 142.044 378.274 137.901 382.563C131.147 389.557 117.559 387.676 111.393 380.705V380.155L116.847 374.555L117.466 374.629C119.712 377.583 127.16 380.28 129.274 376.163C131.388 372.045 125.171 371.249 122.414 370.238C117.758 368.529 113.125 366.183 112.619 360.587C111.459 347.766 128.18 344.41 137.068 350.498C137.372 350.705 139.338 352.309 139.416 352.45C139.564 352.711 139.564 352.984 139.482 353.265C139.416 353.472 139.139 353.519 139.03 353.655H139.022Z" fill="#FAFAFA"/>
</g>
<line x1="195.431" y1="497.445" x2="223.445" y2="607.569" stroke="#F1F2F4" stroke-width="4" stroke-linecap="round" stroke-dasharray="8 8"/>
<rect x="224" y="580" width="250" height="56" rx="28" fill="#F1F2F4"/>
<path d="M269.451 616.397C268.885 616.397 268.456 616.251 268.162 615.957C267.876 615.663 267.675 615.291 267.561 614.84C267.453 614.382 267.392 613.905 267.378 613.411C267.371 612.917 267.367 612.469 267.367 612.068C267.367 611.553 267.185 611.13 266.819 610.801C266.461 610.464 266.003 610.296 265.444 610.296C264.535 610.296 263.829 610.049 263.328 609.555C262.827 609.061 262.576 608.373 262.576 607.492C262.576 606.812 262.777 606.189 263.178 605.623C263.579 605.057 264.112 604.603 264.778 604.259C265.451 603.915 266.189 603.743 266.991 603.743C267.349 603.743 267.707 603.793 268.065 603.894C268.431 603.987 268.76 604.08 269.054 604.173C269.354 604.266 269.587 604.312 269.752 604.312C269.895 604.312 270.006 604.237 270.085 604.087C270.164 603.929 270.203 603.74 270.203 603.518C270.203 603.36 270.128 603.185 269.978 602.991C269.834 602.791 269.652 602.622 269.43 602.486C269.208 602.343 268.982 602.271 268.753 602.271C268.688 602.271 268.638 602.289 268.603 602.325C268.574 602.354 268.552 602.404 268.538 602.476C268.531 602.633 268.481 602.766 268.388 602.873C268.302 602.973 268.169 603.023 267.99 603.023C267.725 603.023 267.496 602.966 267.303 602.852C267.109 602.73 266.93 602.608 266.766 602.486C266.608 602.365 266.451 602.304 266.293 602.304C266.135 602.304 266.007 602.372 265.906 602.508C265.806 602.644 265.699 602.801 265.584 602.98C265.477 603.16 265.333 603.317 265.154 603.453C264.982 603.589 264.739 603.657 264.424 603.657C264.13 603.657 263.897 603.575 263.726 603.41C263.554 603.245 263.468 603.031 263.468 602.766C263.468 602.551 263.525 602.361 263.64 602.196C263.754 602.032 263.887 601.863 264.037 601.691C264.195 601.512 264.331 601.305 264.445 601.068C264.56 600.832 264.617 600.538 264.617 600.188C264.617 599.829 264.76 599.475 265.047 599.124C265.333 598.766 265.795 598.472 266.433 598.243C267.07 598.007 267.922 597.885 268.989 597.878C270.422 597.878 271.764 598.154 273.018 598.705C274.271 599.249 275.374 600.001 276.326 600.961C277.279 601.921 278.023 603.027 278.561 604.28C279.098 605.526 279.366 606.848 279.366 608.244C279.366 608.652 279.298 609.014 279.162 609.329C279.033 609.644 278.854 609.938 278.625 610.21C278.202 610.024 277.866 609.727 277.615 609.318C277.372 608.91 277.178 608.48 277.035 608.029C276.892 607.578 276.767 607.195 276.659 606.88C276.559 606.558 276.441 606.396 276.305 606.396C276.226 606.396 276.161 606.429 276.111 606.493C276.061 606.558 276 606.622 275.929 606.687C275.857 606.744 275.75 606.772 275.606 606.772C275.442 606.772 275.252 606.697 275.037 606.547C274.829 606.396 274.615 606.225 274.393 606.031C274.178 605.831 273.974 605.655 273.78 605.505C273.594 605.354 273.44 605.279 273.318 605.279C273.182 605.279 273.057 605.344 272.942 605.473C272.835 605.602 272.781 605.752 272.781 605.924C272.781 606.06 272.892 606.207 273.114 606.364C273.336 606.522 273.59 606.697 273.877 606.891C274.171 607.077 274.428 607.277 274.65 607.492C274.872 607.7 274.983 607.922 274.983 608.158C274.983 608.466 274.887 608.76 274.693 609.039C274.507 609.318 274.317 609.565 274.124 609.78C273.938 609.995 273.845 610.167 273.845 610.296C273.845 610.568 273.863 610.912 273.898 611.327C273.941 611.735 273.827 612.161 273.555 612.605C273.447 612.785 273.265 613.078 273.007 613.486C272.756 613.895 272.448 614.324 272.083 614.775C271.718 615.219 271.31 615.603 270.858 615.925C270.414 616.24 269.945 616.397 269.451 616.397ZM272.158 601.767C272.273 601.767 272.387 601.806 272.502 601.885C272.624 601.956 272.781 601.992 272.975 601.992C273.096 601.992 273.197 601.946 273.275 601.853C273.354 601.752 273.394 601.631 273.394 601.487C273.394 601.237 273.268 601.025 273.018 600.854C272.767 600.682 272.452 600.596 272.072 600.596C271.628 600.596 271.285 600.667 271.041 600.811C270.798 600.947 270.676 601.144 270.676 601.401C270.676 601.573 270.729 601.713 270.837 601.82C270.951 601.921 271.091 601.971 271.256 601.971C271.428 601.971 271.571 601.938 271.686 601.874C271.807 601.802 271.965 601.767 272.158 601.767ZM269 619.201C267.489 619.201 266.071 618.915 264.746 618.342C263.421 617.776 262.257 616.992 261.255 615.989C260.252 614.987 259.465 613.823 258.892 612.498C258.326 611.173 258.043 609.755 258.043 608.244C258.043 606.733 258.326 605.315 258.892 603.99C259.465 602.665 260.252 601.502 261.255 600.499C262.257 599.489 263.421 598.701 264.746 598.136C266.071 597.57 267.489 597.287 269 597.287C270.511 597.287 271.929 597.57 273.254 598.136C274.579 598.701 275.743 599.489 276.745 600.499C277.748 601.502 278.532 602.665 279.098 603.99C279.671 605.315 279.957 606.733 279.957 608.244C279.957 609.755 279.671 611.173 279.098 612.498C278.532 613.823 277.748 614.987 276.745 615.989C275.743 616.992 274.579 617.776 273.254 618.342C271.929 618.915 270.511 619.201 269 619.201ZM269 617.74C270.311 617.74 271.539 617.493 272.685 616.999C273.83 616.505 274.84 615.825 275.714 614.958C276.588 614.084 277.268 613.075 277.755 611.929C278.249 610.783 278.496 609.555 278.496 608.244C278.496 606.934 278.249 605.705 277.755 604.56C277.268 603.407 276.588 602.397 275.714 601.53C274.84 600.657 273.83 599.976 272.685 599.489C271.539 598.995 270.311 598.748 269 598.748C267.689 598.748 266.461 598.995 265.315 599.489C264.17 599.976 263.16 600.657 262.286 601.53C261.412 602.397 260.729 603.407 260.234 604.56C259.747 605.705 259.504 606.934 259.504 608.244C259.504 609.555 259.747 610.783 260.234 611.929C260.729 613.075 261.412 614.084 262.286 614.958C263.16 615.825 264.17 616.505 265.315 616.999C266.461 617.493 267.689 617.74 269 617.74Z" fill="#F24B4B"/>
<path d="M296.84 602.7H307.12V604.04H296.84V602.7ZM297.4 606.9H306.64V608.2H297.4V606.9ZM296.56 611.58H307.54V612.86H296.56V611.58ZM301.18 603.12H302.6V612.28H301.18V603.12ZM303.84 609.1L304.82 608.56C305.207 608.88 305.587 609.247 305.96 609.66C306.347 610.073 306.647 610.44 306.86 610.76L305.82 611.38C305.62 611.06 305.333 610.687 304.96 610.26C304.587 609.82 304.213 609.433 303.84 609.1ZM293.72 599.6H310.28V617.1H308.7V601H295.24V617.1H293.72V599.6ZM294.52 614.7H309.42V616.1H294.52V614.7ZM313.7 599.56H318.74V600.92H315.14V617.1H313.7V599.56ZM318.36 599.56H318.64L318.88 599.5L319.94 600.08C319.633 600.893 319.3 601.767 318.94 602.7C318.593 603.62 318.24 604.48 317.88 605.28C318.627 606.12 319.12 606.9 319.36 607.62C319.613 608.34 319.74 609.013 319.74 609.64C319.74 610.187 319.673 610.667 319.54 611.08C319.407 611.48 319.193 611.787 318.9 612C318.753 612.093 318.587 612.173 318.4 612.24C318.213 612.293 318.013 612.333 317.8 612.36C317.6 612.373 317.373 612.387 317.12 612.4C316.88 612.4 316.64 612.393 316.4 612.38C316.4 612.193 316.36 611.98 316.28 611.74C316.213 611.487 316.12 611.26 316 611.06C316.24 611.073 316.46 611.087 316.66 611.1C316.86 611.1 317.04 611.093 317.2 611.08C317.467 611.067 317.68 611.007 317.84 610.9C318 610.793 318.113 610.613 318.18 610.36C318.247 610.107 318.28 609.827 318.28 609.52C318.28 608.96 318.153 608.34 317.9 607.66C317.66 606.98 317.173 606.24 316.44 605.44C316.627 604.987 316.807 604.513 316.98 604.02C317.167 603.513 317.34 603.02 317.5 602.54C317.673 602.047 317.833 601.58 317.98 601.14C318.127 600.687 318.253 600.293 318.36 599.96V599.56ZM321.24 600.22H329.98V601.64H321.24V600.22ZM320.38 605H331.06V606.42H320.38V605ZM324.64 605.7H326.16V615.2C326.16 615.627 326.107 615.96 326 616.2C325.907 616.453 325.707 616.647 325.4 616.78C325.12 616.9 324.74 616.973 324.26 617C323.78 617.04 323.193 617.06 322.5 617.06C322.473 616.833 322.413 616.573 322.32 616.28C322.227 615.987 322.127 615.733 322.02 615.52C322.54 615.533 323.013 615.54 323.44 615.54C323.867 615.54 324.147 615.533 324.28 615.52C324.413 615.52 324.507 615.493 324.56 615.44C324.613 615.387 324.64 615.3 324.64 615.18V605.7ZM327.52 609L328.8 608.6C329.12 609.253 329.433 609.953 329.74 610.7C330.047 611.433 330.313 612.147 330.54 612.84C330.78 613.533 330.96 614.147 331.08 614.68L329.68 615.18C329.587 614.647 329.427 614.027 329.2 613.32C328.973 612.613 328.713 611.887 328.42 611.14C328.14 610.38 327.84 609.667 327.52 609ZM321.76 608.66L323.12 608.96C322.92 609.733 322.673 610.5 322.38 611.26C322.1 612.007 321.793 612.713 321.46 613.38C321.127 614.047 320.78 614.633 320.42 615.14C320.34 615.073 320.227 614.993 320.08 614.9C319.933 614.793 319.78 614.693 319.62 614.6C319.473 614.493 319.34 614.413 319.22 614.36C319.767 613.64 320.26 612.773 320.7 611.76C321.14 610.747 321.493 609.713 321.76 608.66ZM333.12 605.84H338.38V607.24H333.12V605.84ZM332.82 600.06H338.8V601.46H332.82V600.06ZM332.72 613.46C333.48 613.233 334.38 612.94 335.42 612.58C336.46 612.207 337.527 611.827 338.62 611.44L338.86 612.8C337.86 613.173 336.853 613.54 335.84 613.9C334.84 614.247 333.927 614.573 333.1 614.88L332.72 613.46ZM335.2 600.92H336.6V612.74L335.2 613.14V600.92ZM339.82 599.98H350.88V601.44H339.82V599.98ZM345.16 600.76L346.66 601.16C346.193 602.533 345.627 603.84 344.96 605.08C344.307 606.32 343.58 607.467 342.78 608.52C341.993 609.56 341.153 610.473 340.26 611.26C340.18 611.153 340.067 611.027 339.92 610.88C339.787 610.733 339.64 610.587 339.48 610.44C339.333 610.293 339.2 610.173 339.08 610.08C339.973 609.373 340.8 608.54 341.56 607.58C342.333 606.607 343.02 605.547 343.62 604.4C344.233 603.24 344.747 602.027 345.16 600.76ZM345.54 605.62L346.68 604.82C347.173 605.367 347.687 605.96 348.22 606.6C348.767 607.24 349.273 607.867 349.74 608.48C350.207 609.08 350.573 609.613 350.84 610.08L349.62 611.02C349.353 610.54 348.993 609.987 348.54 609.36C348.087 608.733 347.6 608.093 347.08 607.44C346.56 606.773 346.047 606.167 345.54 605.62ZM344.04 604.22L345.52 603.56V617.04H344.04V604.22ZM359.52 600.26H370.74V601.48H359.52V600.26ZM358.86 603.8H371.2V605.08H358.86V603.8ZM364.24 598.72H365.72V601.06H364.24V598.72ZM367.4 601.4L368.86 601.74C368.66 602.14 368.46 602.54 368.26 602.94C368.06 603.327 367.873 603.667 367.7 603.96L366.42 603.64C366.593 603.333 366.773 602.967 366.96 602.54C367.16 602.1 367.307 601.72 367.4 601.4ZM361.44 601.74L362.72 601.42C362.92 601.74 363.1 602.107 363.26 602.52C363.433 602.92 363.553 603.273 363.62 603.58L362.26 603.94C362.207 603.647 362.1 603.293 361.94 602.88C361.793 602.467 361.627 602.087 361.44 601.74ZM361.7 609.6V611.12H368.6V609.6H361.7ZM361.7 607.14V608.62H368.6V607.14H361.7ZM360.3 606.1H370.06V612.14H360.3V606.1ZM365.88 611.74H367.3V615.16C367.3 615.373 367.333 615.507 367.4 615.56C367.467 615.627 367.627 615.66 367.88 615.66C367.96 615.66 368.107 615.66 368.32 615.66C368.547 615.66 368.773 615.66 369 615.66C369.227 615.66 369.393 615.66 369.5 615.66C369.647 615.66 369.76 615.613 369.84 615.52C369.92 615.44 369.973 615.26 370 614.98C370.04 614.687 370.067 614.24 370.08 613.64C370.173 613.72 370.293 613.8 370.44 613.88C370.6 613.947 370.76 614.013 370.92 614.08C371.08 614.133 371.227 614.173 371.36 614.2C371.32 614.947 371.24 615.52 371.12 615.92C371 616.32 370.82 616.593 370.58 616.74C370.353 616.9 370.047 616.98 369.66 616.98C369.58 616.98 369.447 616.98 369.26 616.98C369.073 616.98 368.873 616.98 368.66 616.98C368.447 616.98 368.247 616.98 368.06 616.98C367.887 616.98 367.76 616.98 367.68 616.98C367.2 616.98 366.827 616.927 366.56 616.82C366.293 616.713 366.113 616.527 366.02 616.26C365.927 616.007 365.88 615.647 365.88 615.18V611.74ZM362.38 611.72H363.86C363.753 612.4 363.58 613.02 363.34 613.58C363.113 614.14 362.793 614.64 362.38 615.08C361.967 615.52 361.433 615.907 360.78 616.24C360.127 616.587 359.313 616.873 358.34 617.1C358.3 616.993 358.227 616.853 358.12 616.68C358.027 616.52 357.92 616.367 357.8 616.22C357.693 616.073 357.593 615.947 357.5 615.84C358.38 615.667 359.113 615.453 359.7 615.2C360.287 614.947 360.76 614.653 361.12 614.32C361.48 613.973 361.753 613.587 361.94 613.16C362.14 612.72 362.287 612.24 362.38 611.72ZM353.06 603.58H358.9V605H353.06V603.58ZM355.38 598.92H356.8V611.96H355.38V598.92ZM352.68 612.4C353.213 612.187 353.827 611.933 354.52 611.64C355.227 611.333 355.973 611.007 356.76 610.66C357.547 610.3 358.327 609.94 359.1 609.58L359.44 610.94C358.373 611.46 357.287 611.98 356.18 612.5C355.087 613.02 354.1 613.487 353.22 613.9L352.68 612.4Z" fill="black"/>
<circle cx="224" cy="608" r="7" fill="#F1F2F4" stroke="white" stroke-width="4"/>
<line x1="291.821" y1="438.79" x2="353.79" y2="492.179" stroke="#F1F2F4" stroke-width="4" stroke-linecap="round" stroke-dasharray="8 8"/>
<rect x="354" y="464" width="250" height="56" rx="28" fill="#F1F2F4"/>
<path d="M400.129 487.732C400.816 487.854 401.389 488.033 401.848 488.27C402.306 488.499 402.703 488.785 403.04 489.129C403.914 489.995 404.494 490.951 404.78 491.997C405.067 493.035 405.063 494.074 404.77 495.112C404.483 496.151 403.91 497.1 403.051 497.959L399.377 501.644C398.525 502.496 397.579 503.065 396.541 503.352C395.503 503.645 394.461 503.649 393.415 503.362C392.377 503.076 391.421 502.496 390.547 501.622C389.68 500.756 389.104 499.803 388.817 498.765C388.531 497.719 388.531 496.677 388.817 495.639C389.111 494.6 389.684 493.651 390.536 492.792L393.694 489.645C393.637 489.995 393.626 490.364 393.662 490.751C393.705 491.131 393.802 491.489 393.952 491.825L391.847 493.931C391.224 494.554 390.808 495.241 390.601 495.993C390.393 496.745 390.393 497.501 390.601 498.26C390.808 499.012 391.224 499.703 391.847 500.333C392.47 500.956 393.157 501.368 393.909 501.568C394.668 501.776 395.424 501.776 396.176 501.568C396.928 501.361 397.615 500.945 398.238 500.322L401.751 496.82C402.374 496.197 402.786 495.51 402.986 494.758C403.194 494.006 403.194 493.254 402.986 492.502C402.779 491.743 402.363 491.048 401.74 490.418C401.389 490.067 400.97 489.788 400.483 489.58C400.004 489.372 399.409 489.24 398.7 489.183L400.129 487.732ZM399.86 496.584C399.173 496.462 398.6 496.287 398.142 496.058C397.683 495.821 397.286 495.531 396.949 495.188C396.076 494.321 395.495 493.368 395.209 492.33C394.923 491.285 394.923 490.243 395.209 489.204C395.503 488.166 396.079 487.217 396.938 486.357L400.602 482.684C401.461 481.824 402.41 481.251 403.448 480.965C404.487 480.671 405.525 480.668 406.563 480.954C407.609 481.241 408.569 481.821 409.442 482.694C410.309 483.561 410.885 484.517 411.172 485.562C411.458 486.601 411.455 487.639 411.161 488.678C410.875 489.716 410.305 490.665 409.453 491.524L406.295 494.672C406.352 494.321 406.359 493.956 406.316 493.576C406.281 493.197 406.188 492.835 406.037 492.491L408.143 490.386C408.766 489.763 409.181 489.075 409.389 488.323C409.596 487.571 409.596 486.819 409.389 486.067C409.181 485.308 408.766 484.617 408.143 483.994C407.512 483.364 406.821 482.949 406.069 482.748C405.317 482.54 404.565 482.54 403.813 482.748C403.062 482.956 402.37 483.371 401.74 483.994L398.238 487.496C397.615 488.119 397.2 488.807 396.992 489.559C396.785 490.311 396.785 491.066 396.992 491.825C397.2 492.577 397.619 493.268 398.249 493.898C398.6 494.249 399.015 494.529 399.495 494.736C399.982 494.944 400.58 495.076 401.289 495.134L399.86 496.584Z" fill="#F24B4B"/>
<path d="M428.96 489.24H439.06V490.58H428.96V489.24ZM428.6 498.94H439.32V500.28H428.6V498.94ZM427.92 493.1H440.16V501.12H438.64V494.46H429.4V501.12H427.92V493.1ZM433.96 484.22C433.413 485.033 432.7 485.873 431.82 486.74C430.953 487.607 429.987 488.44 428.92 489.24C427.867 490.04 426.767 490.747 425.62 491.36C425.553 491.253 425.467 491.127 425.36 490.98C425.253 490.833 425.14 490.687 425.02 490.54C424.9 490.393 424.787 490.273 424.68 490.18C425.853 489.58 426.98 488.867 428.06 488.04C429.153 487.213 430.133 486.34 431 485.42C431.88 484.5 432.58 483.607 433.1 482.74H434.64C435.173 483.487 435.78 484.213 436.46 484.92C437.153 485.627 437.887 486.293 438.66 486.92C439.447 487.547 440.247 488.12 441.06 488.64C441.887 489.147 442.693 489.573 443.48 489.92C443.307 490.107 443.133 490.32 442.96 490.56C442.787 490.8 442.627 491.033 442.48 491.26C441.693 490.833 440.9 490.353 440.1 489.82C439.3 489.287 438.52 488.713 437.76 488.1C437 487.473 436.293 486.833 435.64 486.18C434.987 485.513 434.427 484.86 433.96 484.22ZM453.74 486.04H463.24V487.48H453.04L453.74 486.04ZM456.24 490.38H462.78V491.76H456.24V490.38ZM456.24 494.8H463.04V496.22H456.24V494.8ZM455.5 486.52H457.02V501.08H455.5V486.52ZM454.52 482.94L455.96 483.32C455.587 484.373 455.147 485.413 454.64 486.44C454.147 487.453 453.613 488.407 453.04 489.3C452.467 490.193 451.873 490.987 451.26 491.68C451.18 491.6 451.067 491.493 450.92 491.36C450.787 491.227 450.64 491.093 450.48 490.96C450.333 490.827 450.207 490.727 450.1 490.66C450.7 490.033 451.273 489.307 451.82 488.48C452.367 487.653 452.867 486.767 453.32 485.82C453.787 484.873 454.187 483.913 454.52 482.94ZM449.7 482.78L451.14 483.22C450.713 484.34 450.207 485.46 449.62 486.58C449.033 487.687 448.4 488.727 447.72 489.7C447.04 490.66 446.333 491.52 445.6 492.28C445.547 492.16 445.467 492.007 445.36 491.82C445.253 491.62 445.14 491.42 445.02 491.22C444.913 491.02 444.813 490.867 444.72 490.76C445.387 490.107 446.027 489.353 446.64 488.5C447.253 487.647 447.82 486.733 448.34 485.76C448.873 484.773 449.327 483.78 449.7 482.78ZM447.58 487.92L449.06 486.42L449.08 486.46V501.06H447.58V487.92ZM481.5 486.42L483.1 486.88C482.873 487.507 482.627 488.173 482.36 488.88C482.093 489.573 481.82 490.24 481.54 490.88C481.273 491.507 481.013 492.06 480.76 492.54L479.42 492.1C479.66 491.593 479.913 491.013 480.18 490.36C480.447 489.693 480.693 489.013 480.92 488.32C481.147 487.627 481.34 486.993 481.5 486.42ZM476.64 482.84H477.44V490.7C477.44 491.073 477.487 491.547 477.58 492.12C477.687 492.68 477.867 493.293 478.12 493.96C478.387 494.627 478.753 495.307 479.22 496C479.687 496.693 480.273 497.353 480.98 497.98C481.7 498.607 482.573 499.153 483.6 499.62C483.507 499.74 483.393 499.887 483.26 500.06C483.14 500.233 483.027 500.413 482.92 500.6C482.813 500.787 482.713 500.947 482.62 501.08C481.78 500.693 481.04 500.24 480.4 499.72C479.773 499.213 479.233 498.673 478.78 498.1C478.34 497.527 477.973 496.967 477.68 496.42C477.387 495.86 477.153 495.34 476.98 494.86C476.82 494.38 476.707 493.98 476.64 493.66C476.573 493.993 476.46 494.4 476.3 494.88C476.153 495.347 475.933 495.86 475.64 496.42C475.36 496.967 474.993 497.527 474.54 498.1C474.1 498.66 473.573 499.193 472.96 499.7C472.347 500.22 471.627 500.68 470.8 501.08C470.733 500.96 470.64 500.813 470.52 500.64C470.413 500.48 470.3 500.307 470.18 500.12C470.06 499.947 469.947 499.807 469.84 499.7C470.84 499.22 471.687 498.667 472.38 498.04C473.087 497.413 473.667 496.753 474.12 496.06C474.573 495.353 474.927 494.66 475.18 493.98C475.433 493.3 475.607 492.68 475.7 492.12C475.807 491.547 475.86 491.073 475.86 490.7V482.84H476.64ZM471.96 486.52L473.34 486.72C473.313 487.48 473.24 488.247 473.12 489.02C473 489.793 472.82 490.52 472.58 491.2C472.34 491.88 472.04 492.473 471.68 492.98L470.36 492.32C470.693 491.88 470.967 491.353 471.18 490.74C471.407 490.113 471.58 489.433 471.7 488.7C471.833 487.967 471.92 487.24 471.96 486.52ZM469.54 482.76L470.94 483.2C470.487 484.32 469.953 485.427 469.34 486.52C468.74 487.613 468.087 488.64 467.38 489.6C466.687 490.56 465.973 491.413 465.24 492.16C465.187 492.04 465.107 491.887 465 491.7C464.907 491.513 464.807 491.327 464.7 491.14C464.593 490.953 464.493 490.8 464.4 490.68C465.067 490.04 465.72 489.3 466.36 488.46C467 487.607 467.593 486.7 468.14 485.74C468.687 484.767 469.153 483.773 469.54 482.76ZM467.46 487.88L468.86 486.46L468.9 486.48V501.08H467.46V487.88ZM495.76 482.94H497.26V501.1H495.76V482.94ZM490.82 489.1H502.42V490.52H490.82V489.1ZM489.98 494.04H503.24V495.44H489.98V494.04ZM491.08 484.22L492.34 483.74C492.607 484.167 492.86 484.64 493.1 485.16C493.353 485.667 493.573 486.167 493.76 486.66C493.96 487.14 494.107 487.567 494.2 487.94L492.84 488.52C492.76 488.147 492.627 487.713 492.44 487.22C492.253 486.727 492.04 486.22 491.8 485.7C491.573 485.167 491.333 484.673 491.08 484.22ZM500.76 483.56L502.26 484.14C502.033 484.62 501.787 485.127 501.52 485.66C501.253 486.193 500.987 486.707 500.72 487.2C500.453 487.68 500.2 488.113 499.96 488.5L498.74 488C498.98 487.6 499.22 487.147 499.46 486.64C499.713 486.12 499.953 485.587 500.18 485.04C500.407 484.493 500.6 484 500.76 483.56ZM489.54 482.76L490.94 483.2C490.487 484.32 489.953 485.427 489.34 486.52C488.74 487.613 488.087 488.64 487.38 489.6C486.687 490.56 485.973 491.413 485.24 492.16C485.187 492.04 485.107 491.887 485 491.7C484.907 491.513 484.807 491.327 484.7 491.14C484.593 490.953 484.493 490.8 484.4 490.68C485.067 490.04 485.72 489.3 486.36 488.46C487 487.607 487.593 486.7 488.14 485.74C488.687 484.767 489.153 483.773 489.54 482.76ZM487.46 487.92L488.86 486.5L488.9 486.52V501.04H487.46V487.92Z" fill="black"/>
<circle cx="354" cy="492" r="7" fill="#F1F2F4" stroke="white" stroke-width="4"/>
<line x1="329.404" y1="358.51" x2="406.51" y2="376.596" stroke="#F1F2F4" stroke-width="4" stroke-linecap="round" stroke-dasharray="8 8"/>
<rect x="407" y="348" width="250" height="56" rx="28" fill="#F1F2F4"/>
<path d="M443.859 372.151C443.566 372.151 443.337 372.062 443.172 371.883C443.007 371.704 442.925 371.503 442.925 371.281C442.925 370.945 443.118 370.669 443.505 370.454L452.679 365.158C453.101 364.908 453.538 364.782 453.989 364.782C454.44 364.782 454.881 364.908 455.311 365.158L464.484 370.454C464.871 370.676 465.064 370.952 465.064 371.281C465.064 371.503 464.982 371.704 464.817 371.883C464.653 372.062 464.424 372.151 464.13 372.151H443.859ZM444.45 374.375C444.25 374.375 444.092 374.321 443.978 374.214C443.87 374.106 443.816 373.952 443.816 373.752V373.602C443.816 373.401 443.87 373.247 443.978 373.14C444.092 373.025 444.25 372.968 444.45 372.968H447.318C447.519 372.968 447.673 373.025 447.78 373.14C447.895 373.247 447.952 373.401 447.952 373.602V373.752C447.952 373.952 447.895 374.106 447.78 374.214C447.673 374.321 447.519 374.375 447.318 374.375H444.45ZM445.073 384.043V374.074H446.695V384.043H445.073ZM444.45 385.149C444.25 385.149 444.092 385.092 443.978 384.978C443.87 384.87 443.816 384.716 443.816 384.516V384.365C443.816 384.165 443.87 384.011 443.978 383.903C444.092 383.796 444.25 383.742 444.45 383.742H447.318C447.519 383.742 447.673 383.796 447.78 383.903C447.895 384.011 447.952 384.165 447.952 384.365V384.516C447.952 384.716 447.895 384.87 447.78 384.978C447.673 385.092 447.519 385.149 447.318 385.149H444.45ZM449.864 374.375C449.664 374.375 449.506 374.321 449.392 374.214C449.284 374.106 449.23 373.952 449.23 373.752V373.602C449.23 373.401 449.284 373.247 449.392 373.14C449.506 373.025 449.664 372.968 449.864 372.968H452.722C452.922 372.968 453.076 373.025 453.184 373.14C453.298 373.247 453.355 373.401 453.355 373.602V373.752C453.355 373.952 453.298 374.106 453.184 374.214C453.076 374.321 452.922 374.375 452.722 374.375H449.864ZM450.477 384.043V374.074H452.099V384.043H450.477ZM449.864 385.149C449.664 385.149 449.506 385.092 449.392 384.978C449.284 384.87 449.23 384.716 449.23 384.516V384.365C449.23 384.165 449.284 384.011 449.392 383.903C449.506 383.796 449.664 383.742 449.864 383.742H452.722C452.922 383.742 453.076 383.796 453.184 383.903C453.298 384.011 453.355 384.165 453.355 384.365V384.516C453.355 384.716 453.298 384.87 453.184 384.978C453.076 385.092 452.922 385.149 452.722 385.149H449.864ZM455.268 374.375C455.067 374.375 454.91 374.321 454.795 374.214C454.688 374.106 454.634 373.952 454.634 373.752V373.602C454.634 373.401 454.688 373.247 454.795 373.14C454.91 373.025 455.067 372.968 455.268 372.968H458.125C458.333 372.968 458.49 373.025 458.598 373.14C458.712 373.247 458.77 373.401 458.77 373.602V373.752C458.77 373.952 458.712 374.106 458.598 374.214C458.49 374.321 458.333 374.375 458.125 374.375H455.268ZM455.891 384.043V374.074H457.513V384.043H455.891ZM455.268 385.149C454.845 385.149 454.634 384.938 454.634 384.516V384.365C454.634 384.165 454.688 384.011 454.795 383.903C454.91 383.796 455.067 383.742 455.268 383.742H458.125C458.333 383.742 458.49 383.796 458.598 383.903C458.712 384.011 458.77 384.165 458.77 384.365V384.516C458.77 384.716 458.712 384.87 458.598 384.978C458.49 385.092 458.333 385.149 458.125 385.149H455.268ZM460.671 374.375C460.47 374.375 460.313 374.321 460.198 374.214C460.091 374.106 460.037 373.952 460.037 373.752V373.602C460.037 373.401 460.091 373.247 460.198 373.14C460.313 373.025 460.47 372.968 460.671 372.968H463.539C463.74 372.968 463.894 373.025 464.001 373.14C464.116 373.247 464.173 373.401 464.173 373.602V373.752C464.173 373.952 464.116 374.106 464.001 374.214C463.894 374.321 463.74 374.375 463.539 374.375H460.671ZM461.305 384.043V374.074H462.927V384.043H461.305ZM460.671 385.149C460.248 385.149 460.037 384.938 460.037 384.516V384.365C460.037 384.165 460.091 384.011 460.198 383.903C460.313 383.796 460.47 383.742 460.671 383.742H463.539C463.74 383.742 463.894 383.796 464.001 383.903C464.116 384.011 464.173 384.165 464.173 384.365V384.516C464.173 384.716 464.116 384.87 464.001 384.978C463.894 385.092 463.74 385.149 463.539 385.149H460.671ZM442.86 387.706C442.624 387.706 442.42 387.62 442.248 387.448C442.083 387.276 442.001 387.072 442.001 386.836C442.001 386.6 442.083 386.396 442.248 386.224C442.42 386.059 442.624 385.977 442.86 385.977H465.118C465.354 385.977 465.559 386.059 465.73 386.224C465.902 386.396 465.988 386.6 465.988 386.836C465.988 387.072 465.902 387.276 465.73 387.448C465.559 387.62 465.354 387.706 465.118 387.706H442.86Z" fill="#F24B4B"/>
<path d="M480.02 368.12H489.22V369.56H480.02V368.12ZM484.94 373.94H488.46V375.38H484.94V373.94ZM484.26 368.9H485.72V381.52H484.26V368.9ZM480.86 372.6H482.24V382.1H480.86V372.6ZM479.66 381.74C480.447 381.593 481.36 381.413 482.4 381.2C483.44 380.973 484.54 380.733 485.7 380.48C486.873 380.213 488.033 379.947 489.18 379.68L489.32 381.06C488.213 381.327 487.1 381.593 485.98 381.86C484.86 382.127 483.78 382.38 482.74 382.62C481.713 382.847 480.787 383.06 479.96 383.26L479.66 381.74ZM490.58 370.42H498.18V371.82H490.58V370.42ZM491.26 366.7L492.76 366.94C492.52 368.193 492.213 369.407 491.84 370.58C491.48 371.74 491.073 372.827 490.62 373.84C490.167 374.84 489.653 375.727 489.08 376.5C489 376.393 488.887 376.28 488.74 376.16C488.593 376.027 488.44 375.9 488.28 375.78C488.12 375.66 487.987 375.56 487.88 375.48C488.427 374.787 488.913 373.973 489.34 373.04C489.78 372.107 490.16 371.1 490.48 370.02C490.8 368.94 491.06 367.833 491.26 366.7ZM495.4 371.16L496.9 371.32C496.567 373.613 496.08 375.633 495.44 377.38C494.8 379.127 493.94 380.64 492.86 381.92C491.793 383.187 490.427 384.26 488.76 385.14C488.707 385.02 488.627 384.873 488.52 384.7C488.413 384.54 488.3 384.38 488.18 384.22C488.073 384.06 487.967 383.933 487.86 383.84C489.433 383.067 490.727 382.1 491.74 380.94C492.753 379.767 493.547 378.373 494.12 376.76C494.693 375.133 495.12 373.267 495.4 371.16ZM491.22 371.72C491.54 373.573 492 375.3 492.6 376.9C493.213 378.5 493.987 379.9 494.92 381.1C495.867 382.287 497.02 383.2 498.38 383.84C498.273 383.933 498.153 384.053 498.02 384.2C497.887 384.347 497.76 384.5 497.64 384.66C497.52 384.82 497.42 384.967 497.34 385.1C495.927 384.353 494.733 383.34 493.76 382.06C492.787 380.78 491.987 379.287 491.36 377.58C490.747 375.86 490.253 373.987 489.88 371.96L491.22 371.72ZM508.26 373.82H518.08V375.22H508.26V373.82ZM508.76 377.14L509.96 376.62C510.28 377.033 510.593 377.48 510.9 377.96C511.22 378.427 511.5 378.887 511.74 379.34C511.993 379.793 512.187 380.2 512.32 380.56L511.04 381.16C510.92 380.787 510.733 380.367 510.48 379.9C510.24 379.433 509.967 378.96 509.66 378.48C509.367 377.987 509.067 377.54 508.76 377.14ZM514.26 370.9H515.72V383.28C515.72 383.747 515.653 384.1 515.52 384.34C515.4 384.58 515.187 384.76 514.88 384.88C514.56 385 514.127 385.073 513.58 385.1C513.033 385.14 512.34 385.153 511.5 385.14C511.473 384.94 511.407 384.7 511.3 384.42C511.207 384.153 511.107 383.913 511 383.7C511.64 383.713 512.22 383.72 512.74 383.72C513.273 383.733 513.627 383.733 513.8 383.72C513.973 383.707 514.093 383.667 514.16 383.6C514.227 383.547 514.26 383.44 514.26 383.28V370.9ZM506.88 370.74L508.36 371.16C508 372.013 507.567 372.88 507.06 373.76C506.553 374.627 505.987 375.453 505.36 376.24C504.733 377.013 504.06 377.693 503.34 378.28C503.26 378.187 503.16 378.073 503.04 377.94C502.933 377.793 502.82 377.653 502.7 377.52C502.58 377.387 502.467 377.273 502.36 377.18C503.04 376.647 503.667 376.02 504.24 375.3C504.827 374.58 505.347 373.827 505.8 373.04C506.267 372.253 506.627 371.487 506.88 370.74ZM508.82 366.7H510.36V369.78H508.82V366.7ZM502.06 368.94H518.02V370.34H502.06V368.94ZM501.28 368.94H502.74V374.5C502.74 375.273 502.713 376.12 502.66 377.04C502.62 377.947 502.533 378.88 502.4 379.84C502.28 380.8 502.093 381.733 501.84 382.64C501.587 383.547 501.253 384.387 500.84 385.16C500.747 385.067 500.62 384.967 500.46 384.86C500.313 384.753 500.16 384.647 500 384.54C499.84 384.447 499.7 384.373 499.58 384.32C499.967 383.6 500.273 382.827 500.5 382C500.727 381.16 500.893 380.3 501 379.42C501.12 378.54 501.193 377.68 501.22 376.84C501.26 376 501.28 375.22 501.28 374.5V368.94ZM505.38 374.72L506.68 373.42L506.78 373.46V385.06H505.38V374.72ZM529.84 367.84H534.84V369.26H529.84V367.84ZM528.96 367.84H530.42V374.26C530.42 375.087 530.38 375.98 530.3 376.94C530.22 377.887 530.067 378.847 529.84 379.82C529.627 380.793 529.3 381.733 528.86 382.64C528.42 383.533 527.84 384.353 527.12 385.1C527.053 385.007 526.947 384.893 526.8 384.76C526.667 384.64 526.52 384.52 526.36 384.4C526.213 384.28 526.087 384.193 525.98 384.14C526.647 383.433 527.18 382.673 527.58 381.86C527.98 381.033 528.28 380.187 528.48 379.32C528.68 378.44 528.807 377.573 528.86 376.72C528.927 375.853 528.96 375.033 528.96 374.26V367.84ZM534.18 367.84H535.66V382.26C535.66 382.58 535.667 382.84 535.68 383.04C535.707 383.227 535.747 383.34 535.8 383.38C535.907 383.46 536.027 383.5 536.16 383.5C536.227 383.5 536.313 383.5 536.42 383.5C536.54 383.5 536.647 383.5 536.74 383.5C536.927 383.5 537.06 383.453 537.14 383.36C537.193 383.293 537.233 383.213 537.26 383.12C537.3 383.013 537.327 382.84 537.34 382.6C537.367 382.373 537.387 382.007 537.4 381.5C537.413 380.993 537.42 380.407 537.42 379.74C537.58 379.887 537.767 380.02 537.98 380.14C538.193 380.247 538.393 380.327 538.58 380.38C538.58 380.753 538.567 381.153 538.54 381.58C538.527 381.993 538.507 382.373 538.48 382.72C538.467 383.067 538.447 383.327 538.42 383.5C538.327 384.047 538.14 384.42 537.86 384.62C537.713 384.713 537.547 384.78 537.36 384.82C537.187 384.873 537 384.9 536.8 384.9C536.653 384.9 536.48 384.9 536.28 384.9C536.08 384.9 535.913 384.9 535.78 384.9C535.593 384.9 535.393 384.867 535.18 384.8C534.967 384.747 534.787 384.653 534.64 384.52C534.52 384.413 534.427 384.287 534.36 384.14C534.293 383.993 534.247 383.767 534.22 383.46C534.193 383.14 534.18 382.7 534.18 382.14V367.84ZM520.04 370.98H527.78V372.42H520.04V370.98ZM523.36 366.7H524.82V385.08H523.36V366.7ZM523.3 371.88L524.28 372.2C524.093 373.013 523.86 373.853 523.58 374.72C523.3 375.587 522.987 376.433 522.64 377.26C522.293 378.087 521.927 378.853 521.54 379.56C521.153 380.267 520.753 380.867 520.34 381.36C520.26 381.16 520.14 380.933 519.98 380.68C519.82 380.413 519.68 380.187 519.56 380C519.933 379.547 520.307 379.013 520.68 378.4C521.067 377.773 521.42 377.093 521.74 376.36C522.073 375.627 522.373 374.88 522.64 374.12C522.907 373.36 523.127 372.613 523.3 371.88ZM524.68 374.08C524.827 374.213 525.047 374.44 525.34 374.76C525.647 375.08 525.973 375.433 526.32 375.82C526.667 376.207 526.98 376.567 527.26 376.9C527.553 377.22 527.76 377.447 527.88 377.58L526.94 378.82C526.793 378.58 526.587 378.28 526.32 377.92C526.067 377.547 525.787 377.16 525.48 376.76C525.173 376.347 524.88 375.967 524.6 375.62C524.32 375.273 524.093 375 523.92 374.8L524.68 374.08ZM539.96 370.98H547.18V372.42H539.96V370.98ZM543.08 366.7H544.52V385.08H543.08V366.7ZM543.02 371.88L543.98 372.22C543.793 373.007 543.567 373.82 543.3 374.66C543.033 375.5 542.733 376.327 542.4 377.14C542.08 377.94 541.733 378.693 541.36 379.4C541 380.093 540.627 380.687 540.24 381.18C540.147 380.98 540.02 380.747 539.86 380.48C539.713 380.213 539.58 379.987 539.46 379.8C539.82 379.36 540.173 378.84 540.52 378.24C540.867 377.627 541.2 376.96 541.52 376.24C541.84 375.52 542.127 374.787 542.38 374.04C542.647 373.293 542.86 372.573 543.02 371.88ZM544.44 373.9C544.573 374.033 544.773 374.26 545.04 374.58C545.32 374.9 545.613 375.247 545.92 375.62C546.24 375.993 546.533 376.347 546.8 376.68C547.08 377 547.273 377.233 547.38 377.38L546.44 378.6C546.307 378.36 546.12 378.06 545.88 377.7C545.64 377.327 545.38 376.94 545.1 376.54C544.82 376.14 544.553 375.767 544.3 375.42C544.047 375.073 543.84 374.8 543.68 374.6L544.44 373.9ZM549.44 366.7L550.96 367.04C550.68 368.067 550.347 369.067 549.96 370.04C549.573 371.013 549.147 371.927 548.68 372.78C548.213 373.62 547.713 374.36 547.18 375C547.087 374.92 546.967 374.82 546.82 374.7C546.673 374.58 546.52 374.46 546.36 374.34C546.2 374.22 546.053 374.127 545.92 374.06C546.453 373.473 546.94 372.787 547.38 372C547.82 371.213 548.213 370.373 548.56 369.48C548.92 368.573 549.213 367.647 549.44 366.7ZM549.18 369.98H556.9V371.38H548.52L549.18 369.98ZM556.32 369.98H557.78C557.78 369.98 557.78 370.033 557.78 370.14C557.78 370.233 557.78 370.347 557.78 370.48C557.78 370.6 557.78 370.693 557.78 370.76C557.7 373.12 557.62 375.107 557.54 376.72C557.473 378.32 557.387 379.633 557.28 380.66C557.187 381.673 557.073 382.46 556.94 383.02C556.807 383.58 556.647 383.987 556.46 384.24C556.26 384.52 556.04 384.713 555.8 384.82C555.56 384.927 555.28 385 554.96 385.04C554.667 385.08 554.287 385.093 553.82 385.08C553.353 385.08 552.873 385.067 552.38 385.04C552.367 384.827 552.313 384.58 552.22 384.3C552.14 384.02 552.033 383.767 551.9 383.54C552.447 383.593 552.94 383.62 553.38 383.62C553.82 383.633 554.147 383.64 554.36 383.64C554.547 383.653 554.693 383.64 554.8 383.6C554.907 383.56 555.013 383.473 555.12 383.34C555.267 383.153 555.4 382.793 555.52 382.26C555.64 381.713 555.747 380.94 555.84 379.94C555.933 378.927 556.02 377.633 556.1 376.06C556.18 374.487 556.253 372.573 556.32 370.32V369.98ZM551.82 376.72L552.98 376.32C553.26 376.813 553.54 377.353 553.82 377.94C554.1 378.513 554.347 379.067 554.56 379.6C554.773 380.133 554.927 380.607 555.02 381.02L553.76 381.5C553.68 381.073 553.54 380.587 553.34 380.04C553.14 379.493 552.907 378.933 552.64 378.36C552.373 377.773 552.1 377.227 551.82 376.72ZM550.04 372.92L551.5 373.24C551.3 373.987 551.073 374.78 550.82 375.62C550.567 376.46 550.307 377.267 550.04 378.04C549.787 378.813 549.54 379.493 549.3 380.08L548.1 379.76C548.327 379.16 548.567 378.46 548.82 377.66C549.073 376.86 549.307 376.04 549.52 375.2C549.733 374.36 549.907 373.6 550.04 372.92ZM546.6 379.6C547.507 379.52 548.6 379.407 549.88 379.26C551.173 379.113 552.493 378.96 553.84 378.8L553.88 379.98C552.64 380.167 551.413 380.353 550.2 380.54C549 380.713 547.913 380.873 546.94 381.02L546.6 379.6Z" fill="black"/>
<circle cx="407" cy="376" r="7" fill="#F1F2F4" stroke="white" stroke-width="4"/>
<line x1="330.541" y1="276.628" x2="406.628" y2="260.459" stroke="#F1F2F4" stroke-width="4" stroke-linecap="round" stroke-dasharray="8 8"/>
<rect x="407" y="232" width="250" height="56" rx="28" fill="#F1F2F4"/>
<path d="M452 271.201C450.489 271.201 449.071 270.915 447.746 270.342C446.421 269.776 445.257 268.992 444.255 267.989C443.252 266.979 442.465 265.816 441.892 264.498C441.326 263.173 441.043 261.755 441.043 260.244C441.043 258.733 441.326 257.315 441.892 255.99C442.465 254.665 443.252 253.502 444.255 252.499C445.257 251.496 446.421 250.712 447.746 250.146C449.071 249.574 450.489 249.287 452 249.287C453.511 249.287 454.929 249.574 456.254 250.146C457.579 250.712 458.743 251.496 459.745 252.499C460.748 253.502 461.532 254.665 462.098 255.99C462.671 257.315 462.957 258.733 462.957 260.244C462.957 261.755 462.671 263.173 462.098 264.498C461.532 265.816 460.748 266.979 459.745 267.989C458.743 268.992 457.579 269.776 456.254 270.342C454.929 270.915 453.511 271.201 452 271.201ZM452 266.41C452.107 266.41 452.193 266.374 452.258 266.303C452.329 266.224 452.365 266.138 452.365 266.045V265.078C452.945 265.042 453.475 264.921 453.955 264.713C454.442 264.505 454.829 264.204 455.115 263.811C455.409 263.41 455.556 262.908 455.556 262.307C455.556 261.755 455.423 261.304 455.158 260.953C454.893 260.602 454.542 260.326 454.105 260.126C453.676 259.925 453.21 259.764 452.709 259.643L452.365 259.567V256.355C452.816 256.406 453.196 256.545 453.504 256.774C453.812 257.004 454.034 257.326 454.17 257.741C454.227 257.913 454.306 258.042 454.406 258.128C454.514 258.207 454.643 258.246 454.793 258.246C454.936 258.246 455.072 258.2 455.201 258.106C455.33 258.013 455.395 257.87 455.395 257.677C455.395 257.24 455.244 256.85 454.943 256.506C454.643 256.155 454.259 255.872 453.794 255.657C453.336 255.435 452.859 255.303 452.365 255.26V254.314C452.365 254.221 452.329 254.139 452.258 254.067C452.193 253.989 452.107 253.949 452 253.949C451.9 253.949 451.814 253.989 451.742 254.067C451.671 254.139 451.635 254.221 451.635 254.314V255.26C451.09 255.303 450.589 255.439 450.131 255.668C449.673 255.89 449.304 256.194 449.024 256.581C448.752 256.968 448.616 257.426 448.616 257.956C448.616 258.507 448.749 258.955 449.014 259.299C449.286 259.643 449.633 259.911 450.056 260.104C450.478 260.298 450.915 260.448 451.366 260.556L451.635 260.631V263.982C451.155 263.939 450.747 263.807 450.41 263.585C450.081 263.363 449.83 263.019 449.658 262.554C449.587 262.389 449.501 262.267 449.4 262.188C449.307 262.11 449.189 262.07 449.046 262.07C448.881 262.07 448.738 262.124 448.616 262.231C448.502 262.332 448.444 262.471 448.444 262.65C448.444 262.743 448.466 262.862 448.509 263.005C448.702 263.671 449.103 264.172 449.712 264.509C450.321 264.838 450.962 265.028 451.635 265.078V266.045C451.635 266.138 451.671 266.224 451.742 266.303C451.814 266.374 451.9 266.41 452 266.41ZM449.862 257.859C449.862 257.551 449.945 257.294 450.109 257.086C450.281 256.878 450.503 256.717 450.775 256.603C451.048 256.481 451.334 256.398 451.635 256.355V259.396L451.56 259.374C451.252 259.302 450.969 259.206 450.711 259.084C450.453 258.955 450.245 258.794 450.088 258.601C449.938 258.4 449.862 258.153 449.862 257.859ZM452.365 263.993V260.792L452.473 260.824C452.96 260.946 453.389 261.118 453.762 261.34C454.134 261.555 454.32 261.909 454.32 262.403C454.32 262.955 454.12 263.349 453.719 263.585C453.325 263.814 452.874 263.95 452.365 263.993Z" fill="#F24B4B"/>
<path d="M484.56 251.5H485.98V253.54C485.98 254.113 485.907 254.727 485.76 255.38C485.613 256.033 485.34 256.667 484.94 257.28C484.553 257.893 483.987 258.447 483.24 258.94C483.187 258.847 483.093 258.727 482.96 258.58C482.84 258.433 482.713 258.293 482.58 258.16C482.447 258.027 482.333 257.927 482.24 257.86C482.907 257.447 483.4 256.993 483.72 256.5C484.053 255.993 484.273 255.487 484.38 254.98C484.5 254.46 484.56 253.967 484.56 253.5V251.5ZM485.3 251.5H490.4V252.9H485.3V251.5ZM489.74 251.5H491.16V256.3C491.16 256.527 491.187 256.673 491.24 256.74C491.293 256.793 491.407 256.82 491.58 256.82C491.647 256.82 491.753 256.82 491.9 256.82C492.047 256.82 492.193 256.82 492.34 256.82C492.5 256.82 492.613 256.82 492.68 256.82C492.813 256.82 492.907 256.767 492.96 256.66C493.027 256.553 493.073 256.333 493.1 256C493.127 255.667 493.147 255.153 493.16 254.46C493.32 254.58 493.52 254.693 493.76 254.8C494.013 254.893 494.24 254.967 494.44 255.02C494.4 255.833 494.327 256.467 494.22 256.92C494.113 257.36 493.947 257.667 493.72 257.84C493.507 258.013 493.213 258.1 492.84 258.1C492.747 258.1 492.6 258.1 492.4 258.1C492.2 258.1 491.993 258.1 491.78 258.1C491.58 258.1 491.44 258.1 491.36 258.1C490.933 258.1 490.6 258.053 490.36 257.96C490.133 257.853 489.973 257.667 489.88 257.4C489.787 257.133 489.74 256.767 489.74 256.3V251.5ZM483.36 259.36H491.88V260.72H483.36V259.36ZM491.44 259.36H491.74L492.02 259.3L492.98 259.7C492.567 261.033 492.007 262.22 491.3 263.26C490.607 264.287 489.787 265.18 488.84 265.94C487.907 266.7 486.893 267.34 485.8 267.86C484.707 268.38 483.56 268.8 482.36 269.12C482.307 268.987 482.233 268.833 482.14 268.66C482.06 268.5 481.967 268.34 481.86 268.18C481.753 268.02 481.653 267.887 481.56 267.78C482.68 267.527 483.753 267.173 484.78 266.72C485.82 266.253 486.78 265.68 487.66 265C488.54 264.32 489.3 263.533 489.94 262.64C490.593 261.747 491.093 260.733 491.44 259.6V259.36ZM485.38 260.64C486.113 262.453 487.253 263.973 488.8 265.2C490.36 266.427 492.26 267.28 494.5 267.76C494.393 267.853 494.273 267.98 494.14 268.14C494.02 268.313 493.9 268.48 493.78 268.64C493.673 268.813 493.58 268.967 493.5 269.1C491.193 268.527 489.247 267.567 487.66 266.22C486.073 264.86 484.86 263.14 484.02 261.06L485.38 260.64ZM475.64 261.44C476.213 261.28 476.86 261.1 477.58 260.9C478.313 260.687 479.08 260.453 479.88 260.2C480.693 259.947 481.513 259.7 482.34 259.46L482.54 260.76C481.42 261.147 480.3 261.54 479.18 261.94C478.06 262.327 477.047 262.673 476.14 262.98L475.64 261.44ZM475.9 254.66H482.54V256.06H475.9V254.66ZM478.82 250.7H480.3V267.32C480.3 267.747 480.247 268.073 480.14 268.3C480.033 268.527 479.847 268.7 479.58 268.82C479.327 268.927 478.98 269 478.54 269.04C478.113 269.08 477.567 269.093 476.9 269.08C476.873 268.893 476.813 268.667 476.72 268.4C476.64 268.133 476.547 267.9 476.44 267.7C476.893 267.713 477.307 267.72 477.68 267.72C478.053 267.72 478.307 267.72 478.44 267.72C478.573 267.707 478.667 267.673 478.72 267.62C478.787 267.567 478.82 267.473 478.82 267.34V250.7ZM496.7 252.46L497.46 251.42C497.94 251.58 498.447 251.78 498.98 252.02C499.513 252.247 500.02 252.487 500.5 252.74C500.98 252.993 501.373 253.24 501.68 253.48L500.88 254.64C500.587 254.413 500.2 254.167 499.72 253.9C499.253 253.62 498.753 253.36 498.22 253.12C497.7 252.867 497.193 252.647 496.7 252.46ZM495.98 257.6C496.713 257.387 497.593 257.12 498.62 256.8C499.647 256.48 500.7 256.147 501.78 255.8L502.02 257.12C501.047 257.44 500.067 257.76 499.08 258.08C498.107 258.4 497.22 258.7 496.42 258.98L495.98 257.6ZM504.68 250.78L506.12 250.98C505.787 251.847 505.333 252.72 504.76 253.6C504.187 254.48 503.453 255.287 502.56 256.02C502.48 255.9 502.373 255.787 502.24 255.68C502.12 255.56 501.993 255.447 501.86 255.34C501.727 255.233 501.607 255.147 501.5 255.08C502.313 254.467 502.98 253.773 503.5 253C504.033 252.213 504.427 251.473 504.68 250.78ZM504.7 252.56H512.28V253.72H503.88L504.7 252.56ZM511.94 252.56H512.2L512.44 252.48L513.54 252.78C513.287 253.327 513.013 253.887 512.72 254.46C512.44 255.02 512.173 255.493 511.92 255.88L510.62 255.5C510.833 255.153 511.06 254.727 511.3 254.22C511.553 253.713 511.767 253.227 511.94 252.76V252.56ZM498.64 260.06H511.6V265.5H510.04V261.46H500.12V265.64H498.64V260.06ZM504.46 262.04H505.94C505.767 263.04 505.5 263.933 505.14 264.72C504.78 265.493 504.253 266.167 503.56 266.74C502.88 267.313 501.98 267.793 500.86 268.18C499.753 268.58 498.353 268.9 496.66 269.14C496.633 269.02 496.58 268.88 496.5 268.72C496.42 268.573 496.333 268.427 496.24 268.28C496.16 268.133 496.08 268.007 496 267.9C497.587 267.713 498.893 267.46 499.92 267.14C500.96 266.807 501.78 266.4 502.38 265.92C502.993 265.44 503.453 264.887 503.76 264.26C504.08 263.62 504.313 262.88 504.46 262.04ZM505.32 266L506.14 264.9C506.767 265.087 507.427 265.3 508.12 265.54C508.813 265.78 509.507 266.033 510.2 266.3C510.893 266.553 511.54 266.813 512.14 267.08C512.753 267.333 513.273 267.567 513.7 267.78L512.82 269.02C512.393 268.807 511.88 268.567 511.28 268.3C510.693 268.033 510.06 267.767 509.38 267.5C508.7 267.22 508.007 266.953 507.3 266.7C506.607 266.433 505.947 266.2 505.32 266ZM507.2 253.16H508.7C508.54 253.88 508.307 254.567 508 255.22C507.707 255.873 507.32 256.48 506.84 257.04C506.36 257.6 505.747 258.107 505 258.56C504.267 259 503.373 259.38 502.32 259.7C502.24 259.54 502.12 259.353 501.96 259.14C501.813 258.913 501.667 258.74 501.52 258.62C502.493 258.353 503.313 258.033 503.98 257.66C504.647 257.273 505.193 256.847 505.62 256.38C506.047 255.9 506.38 255.387 506.62 254.84C506.873 254.293 507.067 253.733 507.2 253.16ZM508.06 254.52C508.42 255.133 508.893 255.7 509.48 256.22C510.08 256.727 510.76 257.167 511.52 257.54C512.293 257.913 513.113 258.193 513.98 258.38C513.833 258.513 513.673 258.7 513.5 258.94C513.327 259.167 513.187 259.373 513.08 259.56C512.187 259.307 511.34 258.953 510.54 258.5C509.753 258.033 509.053 257.493 508.44 256.88C507.827 256.253 507.327 255.567 506.94 254.82L508.06 254.52ZM525.84 251.84H530.84V253.26H525.84V251.84ZM524.96 251.84H526.42V258.26C526.42 259.087 526.38 259.98 526.3 260.94C526.22 261.887 526.067 262.847 525.84 263.82C525.627 264.793 525.3 265.733 524.86 266.64C524.42 267.533 523.84 268.353 523.12 269.1C523.053 269.007 522.947 268.893 522.8 268.76C522.667 268.64 522.52 268.52 522.36 268.4C522.213 268.28 522.087 268.193 521.98 268.14C522.647 267.433 523.18 266.673 523.58 265.86C523.98 265.033 524.28 264.187 524.48 263.32C524.68 262.44 524.807 261.573 524.86 260.72C524.927 259.853 524.96 259.033 524.96 258.26V251.84ZM530.18 251.84H531.66V266.26C531.66 266.58 531.667 266.84 531.68 267.04C531.707 267.227 531.747 267.34 531.8 267.38C531.907 267.46 532.027 267.5 532.16 267.5C532.227 267.5 532.313 267.5 532.42 267.5C532.54 267.5 532.647 267.5 532.74 267.5C532.927 267.5 533.06 267.453 533.14 267.36C533.193 267.293 533.233 267.213 533.26 267.12C533.3 267.013 533.327 266.84 533.34 266.6C533.367 266.373 533.387 266.007 533.4 265.5C533.413 264.993 533.42 264.407 533.42 263.74C533.58 263.887 533.767 264.02 533.98 264.14C534.193 264.247 534.393 264.327 534.58 264.38C534.58 264.753 534.567 265.153 534.54 265.58C534.527 265.993 534.507 266.373 534.48 266.72C534.467 267.067 534.447 267.327 534.42 267.5C534.327 268.047 534.14 268.42 533.86 268.62C533.713 268.713 533.547 268.78 533.36 268.82C533.187 268.873 533 268.9 532.8 268.9C532.653 268.9 532.48 268.9 532.28 268.9C532.08 268.9 531.913 268.9 531.78 268.9C531.593 268.9 531.393 268.867 531.18 268.8C530.967 268.747 530.787 268.653 530.64 268.52C530.52 268.413 530.427 268.287 530.36 268.14C530.293 267.993 530.247 267.767 530.22 267.46C530.193 267.14 530.18 266.7 530.18 266.14V251.84ZM516.04 254.98H523.78V256.42H516.04V254.98ZM519.36 250.7H520.82V269.08H519.36V250.7ZM519.3 255.88L520.28 256.2C520.093 257.013 519.86 257.853 519.58 258.72C519.3 259.587 518.987 260.433 518.64 261.26C518.293 262.087 517.927 262.853 517.54 263.56C517.153 264.267 516.753 264.867 516.34 265.36C516.26 265.16 516.14 264.933 515.98 264.68C515.82 264.413 515.68 264.187 515.56 264C515.933 263.547 516.307 263.013 516.68 262.4C517.067 261.773 517.42 261.093 517.74 260.36C518.073 259.627 518.373 258.88 518.64 258.12C518.907 257.36 519.127 256.613 519.3 255.88ZM520.68 258.08C520.827 258.213 521.047 258.44 521.34 258.76C521.647 259.08 521.973 259.433 522.32 259.82C522.667 260.207 522.98 260.567 523.26 260.9C523.553 261.22 523.76 261.447 523.88 261.58L522.94 262.82C522.793 262.58 522.587 262.28 522.32 261.92C522.067 261.547 521.787 261.16 521.48 260.76C521.173 260.347 520.88 259.967 520.6 259.62C520.32 259.273 520.093 259 519.92 258.8L520.68 258.08ZM535.96 254.98H543.18V256.42H535.96V254.98ZM539.08 250.7H540.52V269.08H539.08V250.7ZM539.02 255.88L539.98 256.22C539.793 257.007 539.567 257.82 539.3 258.66C539.033 259.5 538.733 260.327 538.4 261.14C538.08 261.94 537.733 262.693 537.36 263.4C537 264.093 536.627 264.687 536.24 265.18C536.147 264.98 536.02 264.747 535.86 264.48C535.713 264.213 535.58 263.987 535.46 263.8C535.82 263.36 536.173 262.84 536.52 262.24C536.867 261.627 537.2 260.96 537.52 260.24C537.84 259.52 538.127 258.787 538.38 258.04C538.647 257.293 538.86 256.573 539.02 255.88ZM540.44 257.9C540.573 258.033 540.773 258.26 541.04 258.58C541.32 258.9 541.613 259.247 541.92 259.62C542.24 259.993 542.533 260.347 542.8 260.68C543.08 261 543.273 261.233 543.38 261.38L542.44 262.6C542.307 262.36 542.12 262.06 541.88 261.7C541.64 261.327 541.38 260.94 541.1 260.54C540.82 260.14 540.553 259.767 540.3 259.42C540.047 259.073 539.84 258.8 539.68 258.6L540.44 257.9ZM545.44 250.7L546.96 251.04C546.68 252.067 546.347 253.067 545.96 254.04C545.573 255.013 545.147 255.927 544.68 256.78C544.213 257.62 543.713 258.36 543.18 259C543.087 258.92 542.967 258.82 542.82 258.7C542.673 258.58 542.52 258.46 542.36 258.34C542.2 258.22 542.053 258.127 541.92 258.06C542.453 257.473 542.94 256.787 543.38 256C543.82 255.213 544.213 254.373 544.56 253.48C544.92 252.573 545.213 251.647 545.44 250.7ZM545.18 253.98H552.9V255.38H544.52L545.18 253.98ZM552.32 253.98H553.78C553.78 253.98 553.78 254.033 553.78 254.14C553.78 254.233 553.78 254.347 553.78 254.48C553.78 254.6 553.78 254.693 553.78 254.76C553.7 257.12 553.62 259.107 553.54 260.72C553.473 262.32 553.387 263.633 553.28 264.66C553.187 265.673 553.073 266.46 552.94 267.02C552.807 267.58 552.647 267.987 552.46 268.24C552.26 268.52 552.04 268.713 551.8 268.82C551.56 268.927 551.28 269 550.96 269.04C550.667 269.08 550.287 269.093 549.82 269.08C549.353 269.08 548.873 269.067 548.38 269.04C548.367 268.827 548.313 268.58 548.22 268.3C548.14 268.02 548.033 267.767 547.9 267.54C548.447 267.593 548.94 267.62 549.38 267.62C549.82 267.633 550.147 267.64 550.36 267.64C550.547 267.653 550.693 267.64 550.8 267.6C550.907 267.56 551.013 267.473 551.12 267.34C551.267 267.153 551.4 266.793 551.52 266.26C551.64 265.713 551.747 264.94 551.84 263.94C551.933 262.927 552.02 261.633 552.1 260.06C552.18 258.487 552.253 256.573 552.32 254.32V253.98ZM547.82 260.72L548.98 260.32C549.26 260.813 549.54 261.353 549.82 261.94C550.1 262.513 550.347 263.067 550.56 263.6C550.773 264.133 550.927 264.607 551.02 265.02L549.76 265.5C549.68 265.073 549.54 264.587 549.34 264.04C549.14 263.493 548.907 262.933 548.64 262.36C548.373 261.773 548.1 261.227 547.82 260.72ZM546.04 256.92L547.5 257.24C547.3 257.987 547.073 258.78 546.82 259.62C546.567 260.46 546.307 261.267 546.04 262.04C545.787 262.813 545.54 263.493 545.3 264.08L544.1 263.76C544.327 263.16 544.567 262.46 544.82 261.66C545.073 260.86 545.307 260.04 545.52 259.2C545.733 258.36 545.907 257.6 546.04 256.92ZM542.6 263.6C543.507 263.52 544.6 263.407 545.88 263.26C547.173 263.113 548.493 262.96 549.84 262.8L549.88 263.98C548.64 264.167 547.413 264.353 546.2 264.54C545 264.713 543.913 264.873 542.94 265.02L542.6 263.6Z" fill="black"/>
<circle cx="407" cy="260" r="7" fill="#F1F2F4" stroke="white" stroke-width="4"/>
<line x1="289.252" y1="198.183" x2="353.183" y2="144.748" stroke="#F1F2F4" stroke-width="4" stroke-linecap="round" stroke-dasharray="8 8"/>
<rect x="354" y="116" width="250" height="56" rx="28" fill="#F1F2F4"/>
<path d="M388.813 138.035C388.813 137.111 388.996 136.248 389.361 135.446C389.734 134.644 390.246 133.942 390.897 133.341C391.556 132.732 392.319 132.259 393.186 131.923C394.059 131.586 394.997 131.418 396 131.418C397.003 131.418 397.941 131.586 398.814 131.923C399.688 132.259 400.451 132.732 401.103 133.341C401.761 133.942 402.273 134.644 402.639 135.446C403.004 136.248 403.187 137.111 403.187 138.035C403.187 138.866 403.093 139.6 402.907 140.237C402.728 140.868 402.495 141.487 402.209 142.096C401.93 142.704 401.64 143.374 401.339 144.104C401.038 144.835 400.766 145.701 400.522 146.704C400.286 147.7 400.125 148.913 400.039 150.346C400.025 150.539 399.96 150.693 399.846 150.808C399.731 150.922 399.57 150.979 399.362 150.979H392.638C392.43 150.979 392.269 150.922 392.154 150.808C392.047 150.693 391.986 150.539 391.972 150.346C391.886 148.913 391.721 147.7 391.478 146.704C391.241 145.701 390.973 144.835 390.672 144.104C390.371 143.374 390.077 142.704 389.791 142.096C389.512 141.487 389.279 140.868 389.093 140.237C388.907 139.6 388.813 138.866 388.813 138.035ZM392.605 153.3C392.426 153.3 392.276 153.239 392.154 153.117C392.033 152.995 391.972 152.845 391.972 152.666C391.972 152.494 392.033 152.347 392.154 152.226C392.276 152.104 392.426 152.043 392.605 152.043H399.405C399.577 152.043 399.724 152.104 399.846 152.226C399.967 152.347 400.028 152.494 400.028 152.666C400.028 152.845 399.967 152.995 399.846 153.117C399.724 153.239 399.577 153.3 399.405 153.3H392.605ZM396 156.415C395.162 156.415 394.435 156.225 393.819 155.846C393.211 155.473 392.888 154.979 392.853 154.363H399.158C399.108 154.979 398.775 155.473 398.159 155.846C397.55 156.225 396.831 156.415 396 156.415Z" fill="#F24B4B"/>
<path d="M424.28 136.54H433.84V137.96H424.28V136.54ZM433.28 136.54H434.8C434.8 136.54 434.8 136.593 434.8 136.7C434.8 136.807 434.8 136.927 434.8 137.06C434.8 137.193 434.793 137.3 434.78 137.38C434.74 139.94 434.687 142.1 434.62 143.86C434.553 145.607 434.473 147.033 434.38 148.14C434.3 149.247 434.193 150.107 434.06 150.72C433.927 151.32 433.767 151.74 433.58 151.98C433.367 152.287 433.14 152.5 432.9 152.62C432.673 152.753 432.387 152.84 432.04 152.88C431.707 152.92 431.28 152.933 430.76 152.92C430.253 152.92 429.727 152.907 429.18 152.88C429.167 152.653 429.12 152.393 429.04 152.1C428.96 151.807 428.847 151.547 428.7 151.32C429.3 151.373 429.84 151.407 430.32 151.42C430.813 151.433 431.173 151.44 431.4 151.44C431.747 151.44 432.007 151.327 432.18 151.1C432.34 150.913 432.473 150.533 432.58 149.96C432.7 149.373 432.8 148.533 432.88 147.44C432.973 146.333 433.047 144.92 433.1 143.2C433.167 141.48 433.227 139.387 433.28 136.92V136.54ZM427.7 137.16H429.22C429.193 138.347 429.147 139.547 429.08 140.76C429.013 141.973 428.887 143.173 428.7 144.36C428.513 145.533 428.233 146.66 427.86 147.74C427.487 148.807 426.987 149.8 426.36 150.72C425.733 151.64 424.933 152.44 423.96 153.12C423.84 152.933 423.667 152.733 423.44 152.52C423.213 152.307 423 152.133 422.8 152C423.733 151.373 424.493 150.64 425.08 149.8C425.68 148.947 426.153 148.02 426.5 147.02C426.847 146.007 427.1 144.947 427.26 143.84C427.42 142.733 427.527 141.62 427.58 140.5C427.647 139.367 427.687 138.253 427.7 137.16ZM420 144.34L421.48 142.58V153.1H420V144.34ZM417.08 138.38H423.3V139.74H417.08V138.38ZM420 134.7H421.48V139.14H420V134.7ZM421.42 143.3C421.567 143.433 421.793 143.653 422.1 143.96C422.407 144.267 422.733 144.6 423.08 144.96C423.427 145.307 423.74 145.633 424.02 145.94C424.313 146.247 424.527 146.467 424.66 146.6L423.74 147.74C423.58 147.513 423.36 147.233 423.08 146.9C422.813 146.553 422.52 146.193 422.2 145.82C421.893 145.433 421.6 145.08 421.32 144.76C421.04 144.44 420.807 144.187 420.62 144L421.42 143.3ZM422.86 138.38H423.16L423.44 138.3L424.28 138.88C423.8 140.107 423.187 141.3 422.44 142.46C421.693 143.62 420.873 144.687 419.98 145.66C419.1 146.633 418.227 147.453 417.36 148.12C417.307 147.987 417.227 147.84 417.12 147.68C417.027 147.507 416.927 147.34 416.82 147.18C416.713 147.007 416.613 146.88 416.52 146.8C417.347 146.213 418.173 145.487 419 144.62C419.827 143.753 420.58 142.807 421.26 141.78C421.953 140.753 422.487 139.727 422.86 138.7V138.38ZM423.94 142.14L424.94 142.94C424.58 143.34 424.227 143.747 423.88 144.16C423.533 144.56 423.213 144.907 422.92 145.2L422.18 144.6C422.447 144.267 422.753 143.86 423.1 143.38C423.46 142.9 423.74 142.487 423.94 142.14ZM452.76 135.02H454.26V151.1C454.26 151.593 454.187 151.96 454.04 152.2C453.893 152.453 453.66 152.647 453.34 152.78C453.02 152.887 452.567 152.953 451.98 152.98C451.407 153.02 450.653 153.033 449.72 153.02C449.68 152.833 449.607 152.6 449.5 152.32C449.393 152.04 449.287 151.8 449.18 151.6C449.647 151.613 450.087 151.62 450.5 151.62C450.913 151.62 451.273 151.62 451.58 151.62C451.887 151.62 452.107 151.62 452.24 151.62C452.427 151.607 452.56 151.567 452.64 151.5C452.72 151.42 452.76 151.287 452.76 151.1V135.02ZM448.86 137.02H450.3V148.14H448.86V137.02ZM439.48 142.02H445.26V143.36H439.48V142.02ZM438.84 142.02H440.32V150.6C440.32 150.973 440.387 151.22 440.52 151.34C440.667 151.447 440.993 151.5 441.5 151.5C441.633 151.5 441.853 151.5 442.16 151.5C442.48 151.5 442.827 151.5 443.2 151.5C443.587 151.5 443.947 151.5 444.28 151.5C444.613 151.5 444.853 151.5 445 151.5C445.32 151.5 445.553 151.433 445.7 151.3C445.86 151.153 445.973 150.88 446.04 150.48C446.107 150.067 446.153 149.467 446.18 148.68C446.353 148.8 446.567 148.913 446.82 149.02C447.073 149.127 447.307 149.207 447.52 149.26C447.453 150.18 447.347 150.9 447.2 151.42C447.053 151.927 446.813 152.28 446.48 152.48C446.16 152.693 445.7 152.8 445.1 152.8C445.007 152.8 444.833 152.8 444.58 152.8C444.34 152.8 444.053 152.8 443.72 152.8C443.387 152.8 443.053 152.8 442.72 152.8C442.4 152.8 442.113 152.8 441.86 152.8C441.62 152.8 441.46 152.8 441.38 152.8C440.74 152.8 440.233 152.74 439.86 152.62C439.487 152.5 439.22 152.28 439.06 151.96C438.913 151.64 438.84 151.187 438.84 150.6V142.02ZM444.7 142.02H446.14C446.14 142.02 446.14 142.093 446.14 142.24C446.14 142.387 446.133 142.513 446.12 142.62C446.067 143.767 446 144.7 445.92 145.42C445.853 146.14 445.767 146.7 445.66 147.1C445.553 147.487 445.42 147.767 445.26 147.94C445.113 148.113 444.947 148.233 444.76 148.3C444.587 148.367 444.373 148.42 444.12 148.46C443.92 148.473 443.64 148.48 443.28 148.48C442.92 148.48 442.54 148.467 442.14 148.44C442.127 148.24 442.087 148.02 442.02 147.78C441.953 147.54 441.867 147.327 441.76 147.14C442.133 147.18 442.48 147.207 442.8 147.22C443.12 147.233 443.347 147.24 443.48 147.24C443.627 147.24 443.74 147.233 443.82 147.22C443.913 147.193 443.993 147.133 444.06 147.04C444.153 146.933 444.24 146.713 444.32 146.38C444.4 146.047 444.473 145.547 444.54 144.88C444.607 144.213 444.66 143.333 444.7 142.24V142.02ZM441.94 136.54L442.96 135.72C443.533 136.293 444.133 136.927 444.76 137.62C445.4 138.3 445.993 138.967 446.54 139.62C447.1 140.273 447.553 140.853 447.9 141.36L446.8 142.36C446.467 141.853 446.027 141.267 445.48 140.6C444.947 139.92 444.367 139.227 443.74 138.52C443.127 137.813 442.527 137.153 441.94 136.54ZM442.26 134.74L443.66 135.14C443.007 136.62 442.167 138.04 441.14 139.4C440.113 140.76 438.947 141.94 437.64 142.94C437.56 142.833 437.453 142.72 437.32 142.6C437.187 142.467 437.053 142.34 436.92 142.22C436.787 142.087 436.66 141.98 436.54 141.9C437.393 141.287 438.187 140.587 438.92 139.8C439.653 139.013 440.307 138.187 440.88 137.32C441.453 136.453 441.913 135.593 442.26 134.74ZM456.92 137.06H463.26V138.5H456.92V137.06ZM459.44 137.72H460.94V147.62H459.44V137.72ZM456.58 147.82C457.127 147.673 457.767 147.493 458.5 147.28C459.233 147.067 460.013 146.833 460.84 146.58C461.68 146.327 462.527 146.073 463.38 145.82L463.58 147.12C462.42 147.52 461.253 147.92 460.08 148.32C458.92 148.707 457.88 149.06 456.96 149.38L456.58 147.82ZM463.62 135.58H475.14V136.94H463.62V135.58ZM468.46 136.18L470.24 136.44C470 137.013 469.747 137.593 469.48 138.18C469.227 138.767 468.987 139.267 468.76 139.68L467.4 139.4C467.6 138.933 467.8 138.4 468 137.8C468.2 137.187 468.353 136.647 468.46 136.18ZM468.36 141.5H469.86V145.72C469.86 146.373 469.78 147.04 469.62 147.72C469.46 148.4 469.153 149.06 468.7 149.7C468.26 150.34 467.607 150.947 466.74 151.52C465.873 152.093 464.733 152.6 463.32 153.04C463.267 152.933 463.18 152.807 463.06 152.66C462.953 152.527 462.84 152.387 462.72 152.24C462.6 152.093 462.487 151.973 462.38 151.88C463.74 151.507 464.82 151.08 465.62 150.6C466.42 150.107 467.013 149.587 467.4 149.04C467.8 148.48 468.06 147.92 468.18 147.36C468.3 146.787 468.36 146.24 468.36 145.72V141.5ZM469.78 149.68L470.72 148.74C471.24 149.06 471.78 149.413 472.34 149.8C472.913 150.187 473.453 150.573 473.96 150.96C474.48 151.347 474.9 151.7 475.22 152.02L474.22 153.08C473.913 152.76 473.507 152.4 473 152C472.507 151.6 471.973 151.2 471.4 150.8C470.84 150.387 470.3 150.013 469.78 149.68ZM464.34 139.02H473.82V148.4H472.32V140.38H465.8V148.44H464.34V139.02ZM480.2 140.66H491.76V142.1H480.2V140.66ZM480.2 145.4H491.76V146.84H480.2V145.4ZM480.2 150.16H491.76V151.62H480.2V150.16ZM479.16 135.94H492.74V152.98H491.18V137.42H480.66V152.98H479.16V135.94Z" fill="black"/>
<circle cx="354" cy="144" r="7" fill="#F1F2F4" stroke="white" stroke-width="4"/>
<line x1="194.586" y1="136.551" x2="223.551" y2="28.4144" stroke="#F1F2F4" stroke-width="4" stroke-linecap="round" stroke-dasharray="8 8"/>
<rect x="224" width="250" height="56" rx="28" fill="#F1F2F4"/>
<path d="M272.351 37.9014C271.506 37.9014 270.911 37.7796 270.567 37.5361C270.231 37.2998 270.062 36.9453 270.062 36.4727C270.062 35.778 270.27 35.0511 270.686 34.292C271.101 33.5257 271.702 32.8096 272.49 32.1436C273.278 31.4704 274.227 30.9261 275.337 30.5107C276.454 30.0882 277.707 29.877 279.097 29.877C280.493 29.877 281.746 30.0882 282.856 30.5107C283.974 30.9261 284.923 31.4704 285.703 32.1436C286.491 32.8096 287.092 33.5257 287.508 34.292C287.93 35.0511 288.142 35.778 288.142 36.4727C288.142 36.9453 287.97 37.2998 287.626 37.5361C287.282 37.7796 286.688 37.9014 285.843 37.9014H272.351ZM279.107 27.9541C278.334 27.9541 277.621 27.7464 276.97 27.3311C276.318 26.9085 275.795 26.3428 275.401 25.6338C275.007 24.9176 274.811 24.1156 274.811 23.2275C274.811 22.3538 275.007 21.5661 275.401 20.8643C275.802 20.1624 276.329 19.6074 276.98 19.1992C277.632 18.791 278.341 18.5869 279.107 18.5869C279.874 18.5869 280.583 18.7874 281.234 19.1885C281.886 19.5895 282.409 20.141 282.803 20.8428C283.197 21.5374 283.394 22.3252 283.394 23.2061C283.394 24.1012 283.197 24.9069 282.803 25.623C282.409 26.3392 281.886 26.9085 281.234 27.3311C280.583 27.7464 279.874 27.9541 279.107 27.9541ZM260.749 37.9014C260.069 37.9014 259.582 37.7689 259.288 37.5039C259.002 37.2461 258.858 36.8737 258.858 36.3867C258.858 35.6491 259.041 34.8971 259.406 34.1309C259.771 33.3574 260.294 32.6484 260.975 32.0039C261.662 31.3594 262.489 30.8402 263.456 30.4463C264.43 30.0452 265.522 29.8447 266.732 29.8447C267.735 29.8447 268.623 29.9772 269.396 30.2422C270.177 30.5 270.868 30.8294 271.47 31.2305C270.89 31.6816 270.378 32.2044 269.934 32.7988C269.497 33.3861 269.153 33.9948 268.902 34.625C268.652 35.2552 268.519 35.8568 268.505 36.4297C268.491 37.0026 268.623 37.4932 268.902 37.9014H260.749ZM266.732 28.2012C266.066 28.2012 265.447 28.0186 264.874 27.6533C264.308 27.2881 263.854 26.7939 263.51 26.1709C263.166 25.5479 262.994 24.8532 262.994 24.0869C262.994 23.3206 263.166 22.6331 263.51 22.0244C263.861 21.4157 264.319 20.9359 264.885 20.585C265.458 20.2269 266.074 20.0479 266.732 20.0479C267.398 20.0479 268.014 20.2233 268.58 20.5742C269.153 20.918 269.611 21.3942 269.955 22.0029C270.299 22.6045 270.471 23.292 270.471 24.0654C270.471 24.8389 270.299 25.5407 269.955 26.1709C269.611 26.7939 269.157 27.2881 268.591 27.6533C268.025 28.0186 267.406 28.2012 266.732 28.2012Z" fill="#F24B4B"/>
<path d="M310.92 20.14C310.507 20.7933 310.007 21.4667 309.42 22.16C308.833 22.84 308.173 23.5267 307.44 24.22C306.707 24.9 305.933 25.5533 305.12 26.18C304.32 26.8067 303.493 27.3733 302.64 27.88C302.573 27.7733 302.487 27.6467 302.38 27.5C302.273 27.3533 302.16 27.2067 302.04 27.06C301.92 26.9133 301.8 26.7933 301.68 26.7C302.84 26.0333 303.96 25.2533 305.04 24.36C306.133 23.4533 307.113 22.5067 307.98 21.52C308.86 20.52 309.553 19.56 310.06 18.64H311.6C312.12 19.4267 312.72 20.2 313.4 20.96C314.08 21.72 314.807 22.4467 315.58 23.14C316.367 23.82 317.167 24.4467 317.98 25.02C318.793 25.58 319.6 26.06 320.4 26.46C320.213 26.6333 320.027 26.84 319.84 27.08C319.667 27.32 319.513 27.5467 319.38 27.76C318.593 27.3067 317.793 26.7867 316.98 26.2C316.18 25.6 315.4 24.9667 314.64 24.3C313.88 23.62 313.18 22.9267 312.54 22.22C311.913 21.5133 311.373 20.82 310.92 20.14ZM311.06 28.78H317.68V30.16H311.06V28.78ZM302.5 35.16H319.56V36.52H302.5V35.16ZM310.32 24.1H311.9V35.86H310.32V24.1ZM305.04 27.72H306.52V35.82H305.04V27.72ZM322.2 34.58H339.86V36.06H322.2V34.58ZM327.8 18.94H329.34V35.2H327.8V18.94ZM332.7 18.96H334.22V35.3H332.7V18.96ZM338.08 23.36L339.44 24C339.12 24.76 338.767 25.56 338.38 26.4C337.993 27.24 337.593 28.0533 337.18 28.84C336.767 29.6133 336.373 30.3133 336 30.94L334.76 30.3C335.133 29.6867 335.527 28.98 335.94 28.18C336.353 27.38 336.747 26.56 337.12 25.72C337.493 24.88 337.813 24.0933 338.08 23.36ZM322.64 23.72L324.04 23.3C324.4 24.0333 324.76 24.8267 325.12 25.68C325.48 26.5333 325.813 27.36 326.12 28.16C326.44 28.9467 326.693 29.6333 326.88 30.22L325.38 30.78C325.22 30.18 324.987 29.4733 324.68 28.66C324.387 27.8467 324.06 27.0067 323.7 26.14C323.353 25.2733 323 24.4667 322.64 23.72ZM350.22 18.7H351.74V21.36H350.22V18.7ZM342.74 20.48H359.38V24.46H357.86V21.86H344.22V24.46H342.74V20.48ZM345.3 23.88H356.58V25.2H345.3V23.88ZM347.94 26.86L349.06 26.16C349.94 26.8133 350.653 27.5467 351.2 28.36C351.76 29.16 352.167 29.9733 352.42 30.8C352.687 31.6267 352.82 32.42 352.82 33.18C352.82 33.9267 352.707 34.5933 352.48 35.18C352.253 35.7533 351.94 36.1867 351.54 36.48C351.207 36.7333 350.88 36.9067 350.56 37C350.24 37.0933 349.847 37.14 349.38 37.14C349.14 37.1533 348.867 37.1533 348.56 37.14C348.267 37.1267 347.96 37.1133 347.64 37.1C347.627 36.8867 347.587 36.6467 347.52 36.38C347.453 36.1133 347.353 35.8733 347.22 35.66C347.593 35.6867 347.94 35.7067 348.26 35.72C348.593 35.7467 348.873 35.76 349.1 35.76C349.367 35.76 349.607 35.7333 349.82 35.68C350.047 35.64 350.26 35.5333 350.46 35.36C350.753 35.16 350.973 34.8333 351.12 34.38C351.267 33.9267 351.327 33.4 351.3 32.8C351.287 32.1867 351.16 31.5333 350.92 30.84C350.68 30.1467 350.313 29.46 349.82 28.78C349.34 28.1 348.713 27.46 347.94 26.86ZM350.92 24.18L352.18 24.7C351.487 25.3667 350.653 25.98 349.68 26.54C348.72 27.1 347.693 27.6 346.6 28.04C345.52 28.48 344.46 28.8533 343.42 29.16C343.367 29.0667 343.293 28.9467 343.2 28.8C343.107 28.64 343.007 28.4867 342.9 28.34C342.793 28.18 342.7 28.0533 342.62 27.96C343.647 27.7067 344.68 27.4 345.72 27.04C346.773 26.6667 347.753 26.24 348.66 25.76C349.567 25.2667 350.32 24.74 350.92 24.18ZM349.52 27.98L350.52 28.68C349.973 29.1333 349.3 29.6 348.5 30.08C347.7 30.5467 346.867 30.9867 346 31.4C345.133 31.8 344.313 32.14 343.54 32.42C343.46 32.2467 343.347 32.0467 343.2 31.82C343.053 31.5933 342.907 31.4 342.76 31.24C343.32 31.08 343.913 30.8867 344.54 30.66C345.18 30.42 345.807 30.1533 346.42 29.86C347.033 29.5533 347.607 29.24 348.14 28.92C348.687 28.6 349.147 28.2867 349.52 27.98ZM351 30.04L352.04 30.82C351.52 31.34 350.9 31.86 350.18 32.38C349.46 32.9 348.687 33.4 347.86 33.88C347.033 34.36 346.187 34.7933 345.32 35.18C344.467 35.5667 343.64 35.8933 342.84 36.16C342.747 35.9867 342.627 35.7733 342.48 35.52C342.347 35.28 342.2 35.08 342.04 34.92C342.84 34.7067 343.66 34.4267 344.5 34.08C345.353 33.72 346.187 33.3267 347 32.9C347.813 32.46 348.56 32 349.24 31.52C349.933 31.0267 350.52 30.5333 351 30.04ZM352.84 24.38C353.2 25.8733 353.707 27.2733 354.36 28.58C355.027 29.8867 355.84 31.0267 356.8 32C357.76 32.9733 358.873 33.72 360.14 34.24C360.033 34.3333 359.913 34.46 359.78 34.62C359.647 34.7667 359.52 34.92 359.4 35.08C359.28 35.24 359.18 35.3867 359.1 35.52C357.793 34.92 356.647 34.0867 355.66 33.02C354.687 31.9533 353.867 30.7133 353.2 29.3C352.533 27.8733 351.993 26.3267 351.58 24.66L352.84 24.38ZM357.96 25.86L359.12 26.86C358.667 27.22 358.167 27.5933 357.62 27.98C357.087 28.3667 356.547 28.7333 356 29.08C355.453 29.4133 354.947 29.7067 354.48 29.96L353.52 29.04C353.987 28.7733 354.487 28.46 355.02 28.1C355.567 27.74 356.1 27.36 356.62 26.96C357.14 26.56 357.587 26.1933 357.96 25.86Z" fill="black"/>
<circle cx="224" cy="28" r="7" fill="#F1F2F4" stroke="white" stroke-width="4"/>
<defs>
<clipPath id="clip0_349_6383">
<rect width="200" height="200" fill="white" transform="translate(48 218)"/>
</clipPath>
</defs>
</svg>
