<svg width="15" height="25" viewBox="0 0 15 25" fill="none" xmlns="http://www.w3.org/2000/svg">
<path d="M0 6.61719C0 5.69336 0.182617 4.8304 0.547852 4.02832C0.920247 3.22624 1.43229 2.52441 2.08398 1.92285C2.74284 1.31413 3.50553 0.841471 4.37207 0.504883C5.24577 0.168294 6.18392 0 7.18652 0C8.18913 0 9.12728 0.168294 10.001 0.504883C10.8747 0.841471 11.6374 1.31413 12.2891 1.92285C12.9479 2.52441 13.46 3.22624 13.8252 4.02832C14.1904 4.8304 14.373 5.69336 14.373 6.61719C14.373 7.44792 14.2799 8.18197 14.0938 8.81934C13.9147 9.44954 13.682 10.069 13.3955 10.6777C13.1162 11.2865 12.8262 11.9561 12.5254 12.6865C12.2246 13.417 11.9525 14.2835 11.709 15.2861C11.4727 16.2816 11.3115 17.4954 11.2256 18.9277C11.2113 19.1211 11.1468 19.2751 11.0322 19.3896C10.9176 19.5042 10.7565 19.5615 10.5488 19.5615H3.82422C3.61654 19.5615 3.4554 19.5042 3.34082 19.3896C3.2334 19.2751 3.17253 19.1211 3.1582 18.9277C3.07227 17.4954 2.90755 16.2816 2.66406 15.2861C2.42773 14.2835 2.15918 13.417 1.8584 12.6865C1.55762 11.9561 1.264 11.2865 0.977539 10.6777C0.698242 10.069 0.465495 9.44954 0.279297 8.81934C0.093099 8.18197 0 7.44792 0 6.61719ZM3.79199 21.8818C3.61296 21.8818 3.46257 21.821 3.34082 21.6992C3.21908 21.5775 3.1582 21.4271 3.1582 21.248C3.1582 21.0762 3.21908 20.9294 3.34082 20.8076C3.46257 20.6859 3.61296 20.625 3.79199 20.625H10.5918C10.7637 20.625 10.9105 20.6859 11.0322 20.8076C11.154 20.9294 11.2148 21.0762 11.2148 21.248C11.2148 21.4271 11.154 21.5775 11.0322 21.6992C10.9105 21.821 10.7637 21.8818 10.5918 21.8818H3.79199ZM7.18652 24.9971C6.34863 24.9971 5.62174 24.8073 5.00586 24.4277C4.39714 24.0553 4.07487 23.5612 4.03906 22.9453H10.3447C10.2946 23.5612 9.96159 24.0553 9.3457 24.4277C8.73698 24.8073 8.01725 24.9971 7.18652 24.9971Z" fill="#F24B4B"/>
</svg>
