<svg width="24" height="24" viewBox="0 0 24 24" fill="none" xmlns="http://www.w3.org/2000/svg">
<path d="M11.7412 7.20801C12.4287 7.32975 13.0016 7.50879 13.46 7.74512C13.9183 7.97428 14.3158 8.26074 14.6523 8.60449C15.526 9.47103 16.1061 10.4271 16.3926 11.4727C16.679 12.5111 16.6755 13.5495 16.3818 14.5879C16.0954 15.6263 15.5225 16.5752 14.6631 17.4346L10.9893 21.1191C10.137 21.9714 9.19173 22.5407 8.15332 22.8271C7.11491 23.1208 6.07292 23.1243 5.02734 22.8379C3.98893 22.5514 3.03288 21.9714 2.15918 21.0977C1.29264 20.2311 0.716146 19.2786 0.429688 18.2402C0.143229 17.1947 0.143229 16.1527 0.429688 15.1143C0.723307 14.0758 1.29622 13.127 2.14844 12.2676L5.30664 9.12012C5.24935 9.47103 5.23861 9.83984 5.27441 10.2266C5.31738 10.6061 5.41406 10.9642 5.56445 11.3008L3.45898 13.4062C2.83594 14.0293 2.42057 14.7168 2.21289 15.4688C2.00521 16.2207 2.00521 16.9762 2.21289 17.7354C2.42057 18.4873 2.83594 19.1784 3.45898 19.8086C4.08203 20.4316 4.76953 20.8434 5.52148 21.0439C6.2806 21.2516 7.03613 21.2516 7.78809 21.0439C8.54004 20.8363 9.22754 20.4209 9.85059 19.7979L13.3633 16.2959C13.9863 15.6729 14.3981 14.9854 14.5986 14.2334C14.8063 13.4814 14.8063 12.7295 14.5986 11.9775C14.391 11.2184 13.9756 10.5238 13.3525 9.89355C13.0016 9.54264 12.5827 9.26335 12.0957 9.05566C11.6159 8.84798 11.0215 8.71549 10.3125 8.6582L11.7412 7.20801ZM11.4727 16.0596C10.7852 15.9378 10.2122 15.7624 9.75391 15.5332C9.29557 15.2969 8.89811 15.0068 8.56152 14.6631C7.68783 13.7965 7.10775 12.8441 6.82129 11.8057C6.53483 10.7601 6.53483 9.7181 6.82129 8.67969C7.11491 7.64128 7.69141 6.69238 8.55078 5.83301L12.2139 2.15918C13.0732 1.2998 14.0221 0.726888 15.0605 0.44043C16.099 0.14681 17.1374 0.143229 18.1758 0.429688C19.2214 0.716146 20.181 1.29622 21.0547 2.16992C21.9212 3.03646 22.4977 3.99251 22.7842 5.03809C23.0706 6.0765 23.0671 7.11491 22.7734 8.15332C22.487 9.19173 21.9176 10.1406 21.0654 11L17.9072 14.1475C17.9645 13.7965 17.9717 13.4313 17.9287 13.0518C17.8929 12.6722 17.7998 12.3105 17.6494 11.9668L19.7549 9.86133C20.3779 9.23828 20.7933 8.55078 21.001 7.79883C21.2087 7.04688 21.2087 6.29492 21.001 5.54297C20.7933 4.78385 20.3779 4.09277 19.7549 3.46973C19.1247 2.83952 18.4336 2.42415 17.6816 2.22363C16.9297 2.01595 16.1777 2.01595 15.4258 2.22363C14.6738 2.43132 13.9827 2.84668 13.3525 3.46973L9.85059 6.97168C9.22754 7.59473 8.81217 8.28223 8.60449 9.03418C8.39681 9.78613 8.39681 10.5417 8.60449 11.3008C8.81217 12.0527 9.23112 12.7438 9.86133 13.374C10.2122 13.7249 10.6276 14.0042 11.1074 14.2119C11.5944 14.4196 12.1924 14.5521 12.9014 14.6094L11.4727 16.0596Z" fill="#F24B4B"/>
</svg>
