<svg width="30" height="20" viewBox="0 0 30 20" fill="none" xmlns="http://www.w3.org/2000/svg">
<path d="M13.4922 19.3145C12.6471 19.3145 12.0527 19.1927 11.709 18.9492C11.3724 18.7129 11.2041 18.3584 11.2041 17.8857C11.2041 17.1911 11.4118 16.4642 11.8271 15.7051C12.2425 14.9388 12.8441 14.2227 13.6318 13.5566C14.4196 12.8835 15.3685 12.3392 16.4785 11.9238C17.5957 11.5013 18.849 11.29 20.2383 11.29C21.6348 11.29 22.888 11.5013 23.998 11.9238C25.1152 12.3392 26.0641 12.8835 26.8447 13.5566C27.6325 14.2227 28.234 14.9388 28.6494 15.7051C29.0719 16.4642 29.2832 17.1911 29.2832 17.8857C29.2832 18.3584 29.1113 18.7129 28.7676 18.9492C28.4238 19.1927 27.8294 19.3145 26.9844 19.3145H13.4922ZM20.249 9.36719C19.4756 9.36719 18.763 9.15951 18.1113 8.74414C17.4596 8.32161 16.9368 7.75586 16.543 7.04688C16.1491 6.33073 15.9521 5.52865 15.9521 4.64062C15.9521 3.76693 16.1491 2.97917 16.543 2.27734C16.944 1.57552 17.4704 1.02051 18.1221 0.612305C18.7738 0.204102 19.4827 0 20.249 0C21.0153 0 21.7243 0.200521 22.376 0.601562C23.0277 1.0026 23.5505 1.55404 23.9443 2.25586C24.3382 2.95052 24.5352 3.73828 24.5352 4.61914C24.5352 5.51432 24.3382 6.31999 23.9443 7.03613C23.5505 7.75228 23.0277 8.32161 22.376 8.74414C21.7243 9.15951 21.0153 9.36719 20.249 9.36719ZM1.89062 19.3145C1.21029 19.3145 0.723307 19.182 0.429688 18.917C0.143229 18.6592 0 18.2868 0 17.7998C0 17.0622 0.182617 16.3102 0.547852 15.5439C0.913086 14.7705 1.43587 14.0615 2.11621 13.417C2.80371 12.7725 3.63086 12.2533 4.59766 11.8594C5.57161 11.4583 6.66374 11.2578 7.87402 11.2578C8.87663 11.2578 9.76465 11.3903 10.5381 11.6553C11.3187 11.9131 12.0098 12.2425 12.6113 12.6436C12.0312 13.0947 11.5192 13.6175 11.0752 14.2119C10.6383 14.7992 10.2946 15.4079 10.0439 16.0381C9.79329 16.6683 9.66081 17.2699 9.64648 17.8428C9.63216 18.4157 9.76465 18.9062 10.0439 19.3145H1.89062ZM7.87402 9.61426C7.20801 9.61426 6.58854 9.43164 6.01562 9.06641C5.44987 8.70117 4.99512 8.20703 4.65137 7.58398C4.30762 6.96094 4.13574 6.26628 4.13574 5.5C4.13574 4.73372 4.30762 4.04622 4.65137 3.4375C5.00228 2.82878 5.46061 2.34896 6.02637 1.99805C6.59928 1.63997 7.21517 1.46094 7.87402 1.46094C8.54004 1.46094 9.15592 1.63639 9.72168 1.9873C10.2946 2.33105 10.7529 2.80729 11.0967 3.41602C11.4404 4.01758 11.6123 4.70508 11.6123 5.47852C11.6123 6.25195 11.4404 6.95378 11.0967 7.58398C10.7529 8.20703 10.2982 8.70117 9.73242 9.06641C9.16667 9.43164 8.5472 9.61426 7.87402 9.61426Z" fill="#F24B4B"/>
</svg>
