<svg width="34" height="38" viewBox="0 0 34 38" fill="none" xmlns="http://www.w3.org/2000/svg">
<path d="M10.2741 0.342535V14.006H23.5342V0.623533C23.8729 0.209842 24.2583 0.198133 24.7411 0.147398C26.5086 -0.0438369 31.0247 -0.0477401 32.7805 0.159105C33.2204 0.209841 33.6798 0.287889 33.9952 0.627427V37.2196C33.8122 37.161 33.5903 37.4069 33.528 37.4069H23.8145L23.5342 37.1259V23.1814H10.2741V37.4069H0.280309L0 37.1259V0.627427C0.241377 0.291791 0.428249 0.202028 0.833138 0.151292C2.68239 -0.0945806 7.30748 -0.000914796 9.25795 0.151292C9.61223 0.178611 9.93538 0.260569 10.278 0.346429L10.2741 0.342535Z" fill="#FAFAFA"/>
</svg>
