<svg width="63" height="57" viewBox="0 0 63 57" fill="none" xmlns="http://www.w3.org/2000/svg">
<path d="M42.9625 0.00390655C45.6683 0.761039 48.4869 2.53288 50.7099 4.31253C65.5857 16.2549 66.1113 37.3688 51.2705 49.5961C36.5504 61.7219 13.2654 58.0299 3.70765 41.3027C-4.57702 26.8118 1.6248 8.41432 16.3215 1.09668C17.0573 0.729818 18.599 -0.296608 19.2414 0.280998V16.7506C19.2414 16.9535 17.4311 19.4903 17.1002 20.2201C12.4089 30.6092 19.2219 42.9809 30.9365 43.0277C42.9119 43.0746 49.76 30.5975 44.9208 20.0289C44.6366 19.4083 42.9625 17.1213 42.9625 16.9379V0V0.00390655Z" fill="#FCFCFC"/>
</svg>
