<svg width="30" height="40" viewBox="0 0 30 40" fill="none" xmlns="http://www.w3.org/2000/svg">
<path d="M27.6298 6.10017C27.1004 6.74412 22.9113 11.0996 22.557 11.2245L22.0743 11.2635C20.042 9.17944 15.8686 7.38418 13.3769 9.68679C10.7023 12.1572 13.813 13.9018 15.9776 14.7174C19.5359 16.0522 23.0515 16.5868 26.1504 19.1236C30.904 23.0225 30.6509 30.7187 26.5086 35.0078C19.754 42.0015 6.16678 40.1204 0 33.1501V32.5998L5.45433 26.9994L6.07334 27.0735C8.31971 30.0279 15.7673 32.7247 17.8813 28.6073C19.9953 24.4899 13.7779 23.6937 11.0216 22.6829C6.36533 20.9735 1.73246 18.628 1.22635 13.0314C0.0661815 0.210936 16.7874 -3.14543 25.6755 2.94285C25.9791 3.1497 27.9452 4.75373 28.023 4.89423C28.171 5.15571 28.171 5.4289 28.0892 5.7099C28.023 5.91674 27.7466 5.96358 27.6376 6.10017H27.6298Z" fill="#FAFAFA"/>
</svg>
